<?xml version="1.0" encoding="iso-8859-1"?>
<!-- Generator: Adobe Illustrator 23.0.3, SVG Export Plug-In . SVG Version: 6.00 Build 0)  -->
<svg version="1.1" id="Layer_1" xmlns="http://www.w3.org/2000/svg" xmlns:xlink="http://www.w3.org/1999/xlink" x="0px" y="0px"
	 width="1000px" height="1000px" viewBox="0 0 1000 1000" enable-background="new 0 0 1000 1000" xml:space="preserve">
<g>
	<path fill="#FFFFFF" d="M491.028,773.695c-55.982,0-111.965-12.303-154.584-36.909c-41.575-24.003-64.471-56.007-64.471-90.116
		c0-34.108,22.896-66.111,64.47-90.114c85.238-49.21,223.93-49.211,309.167,0.001c41.574,24.003,64.47,56.006,64.47,90.115
		c0,34.108-22.896,66.111-64.47,90.114l-0.75-1.299l0.75,1.299C602.992,761.392,547.01,773.695,491.028,773.695z M491.025,522.603
		c-55.439,0-110.877,12.183-153.083,36.55c-40.606,23.444-62.969,54.525-62.97,87.517c0,32.992,22.363,64.073,62.971,87.519
		c84.411,48.734,221.757,48.734,306.167,0c40.607-23.444,62.97-54.525,62.97-87.517c0-32.992-22.363-64.073-62.97-87.518
		C601.905,534.787,546.465,522.603,491.025,522.603z"/>
</g>
<g opacity="0.4">
	<path fill="#FFFFFF" d="M676.78,478.125c-1.523,0-2.756,1.233-2.756,2.756s1.233,2.756,2.756,2.756
		c1.521,0,2.756-1.233,2.756-2.756S678.301,478.125,676.78,478.125z"/>
	<path fill="#FFFFFF" d="M670.35,471.693c0-1.52-1.235-2.753-2.756-2.753c-1.522,0-2.756,1.233-2.756,2.753
		c0,1.522,1.233,2.756,2.756,2.756C669.115,474.449,670.35,473.216,670.35,471.693z"/>
	<path fill="#FFFFFF" d="M684.419,473.975c-0.252-0.267-0.515-0.532-0.771-0.798C683.851,473.491,684.111,473.765,684.419,473.975z"
		/>
	<path fill="#FFFFFF" d="M658.409,478.125c-1.522,0-2.756,1.233-2.756,2.756s1.233,2.756,2.756,2.756
		c1.52,0,2.755-1.233,2.755-2.756S659.929,478.125,658.409,478.125z"/>
	<path fill="#FFFFFF" d="M667.594,487.311c-1.522,0-2.756,1.233-2.756,2.756c0,1.52,1.233,2.753,2.756,2.753
		c0.325,0,0.633-0.066,0.922-0.17c0.473-0.371,0.937-0.743,1.402-1.116c0.27-0.426,0.432-0.927,0.432-1.467
		C670.35,488.544,669.115,487.311,667.594,487.311z"/>
	<path fill="#FFFFFF" d="M658.409,496.495c-1.522,0-2.756,1.233-2.756,2.756c0,0.788,0.334,1.494,0.864,1.996
		c1.512-0.993,3-1.994,4.449-3.007C660.562,497.219,659.572,496.495,658.409,496.495z"/>
	<path fill="#FFFFFF" d="M637.281,444.138c0,1.522,1.233,2.756,2.756,2.756c1.521,0,2.756-1.233,2.756-2.756
		c0-0.682-0.257-1.297-0.667-1.778c-0.585-0.319-1.177-0.631-1.766-0.945c-0.107-0.013-0.212-0.033-0.323-0.033
		C638.515,441.383,637.281,442.616,637.281,444.138z"/>
	<path fill="#FFFFFF" d="M630.851,437.707c0.521,0,1.002-0.153,1.417-0.404c-1.367-0.661-2.745-1.312-4.133-1.951
		C628.331,436.683,629.466,437.707,630.851,437.707z"/>
	<path fill="#FFFFFF" d="M621.666,441.383c-1.522,0-2.756,1.233-2.756,2.756s1.233,2.756,2.756,2.756
		c1.52,0,2.755-1.233,2.755-2.756S623.186,441.383,621.666,441.383z"/>
	<path fill="#FFFFFF" d="M658.409,465.265c1.52,0,2.755-1.233,2.755-2.756s-1.234-2.756-2.755-2.756
		c-1.522,0-2.756,1.233-2.756,2.756S656.887,465.265,658.409,465.265z"/>
	<path fill="#FFFFFF" d="M640.037,459.753c-1.523,0-2.756,1.233-2.756,2.756s1.233,2.756,2.756,2.756
		c1.521,0,2.756-1.233,2.756-2.756S641.558,459.753,640.037,459.753z"/>
	<path fill="#FFFFFF" d="M630.851,468.94c-1.522,0-2.756,1.233-2.756,2.753c0,1.522,1.233,2.756,2.756,2.756
		c1.521,0,2.756-1.233,2.756-2.756C633.607,470.174,632.373,468.94,630.851,468.94z"/>
	<path fill="#FFFFFF" d="M649.223,474.449c1.52,0,2.756-1.233,2.756-2.756c0-1.52-1.236-2.753-2.756-2.753
		c-1.522,0-2.756,1.233-2.756,2.753C646.467,473.216,647.701,474.449,649.223,474.449z"/>
	<path fill="#FFFFFF" d="M630.851,450.568c-1.522,0-2.756,1.233-2.756,2.756c0,1.52,1.233,2.753,2.756,2.753
		c1.521,0,2.756-1.233,2.756-2.753C633.607,451.802,632.373,450.568,630.851,450.568z"/>
	<path fill="#FFFFFF" d="M646.467,453.324c0,1.52,1.233,2.753,2.756,2.753c1.52,0,2.756-1.233,2.756-2.753
		c0-1.522-1.236-2.756-2.756-2.756C647.701,450.568,646.467,451.802,646.467,453.324z"/>
	<path fill="#FFFFFF" d="M621.666,478.125c-1.522,0-2.756,1.233-2.756,2.756s1.233,2.756,2.756,2.756
		c1.52,0,2.755-1.233,2.755-2.756S623.186,478.125,621.666,478.125z"/>
	<path fill="#FFFFFF" d="M621.666,459.753c-1.522,0-2.756,1.233-2.756,2.756s1.233,2.756,2.756,2.756
		c1.52,0,2.755-1.233,2.755-2.756S623.186,459.753,621.666,459.753z"/>
	<path fill="#FFFFFF" d="M640.037,496.495c-1.523,0-2.756,1.233-2.756,2.756s1.233,2.756,2.756,2.756
		c1.521,0,2.756-1.233,2.756-2.756S641.558,496.495,640.037,496.495z"/>
	<path fill="#FFFFFF" d="M630.851,511.191c1.521,0,2.756-1.233,2.756-2.756c0-1.52-1.235-2.753-2.756-2.753
		c-1.522,0-2.756,1.233-2.756,2.753C628.096,509.958,629.329,511.191,630.851,511.191z"/>
	<path fill="#FFFFFF" d="M646.731,507.277c0.005-0.003,0.01-0.005,0.014-0.008c0.899-0.519,1.784-1.042,2.664-1.568
		c-0.063-0.004-0.122-0.019-0.186-0.019C648.117,505.682,647.17,506.337,646.731,507.277z"/>
	<path fill="#FFFFFF" d="M628.096,490.066c0,1.52,1.233,2.753,2.756,2.753c1.521,0,2.756-1.233,2.756-2.753
		c0-1.522-1.235-2.756-2.756-2.756C629.329,487.311,628.096,488.544,628.096,490.066z"/>
	<path fill="#FFFFFF" d="M646.467,490.066c0,1.52,1.233,2.753,2.756,2.753c1.52,0,2.756-1.233,2.756-2.753
		c0-1.522-1.236-2.756-2.756-2.756C647.701,487.311,646.467,488.544,646.467,490.066z"/>
	<path fill="#FFFFFF" d="M621.666,496.495c-1.522,0-2.756,1.233-2.756,2.756s1.233,2.756,2.756,2.756
		c1.52,0,2.755-1.233,2.755-2.756S623.186,496.495,621.666,496.495z"/>
	<path fill="#FFFFFF" d="M640.037,483.636c1.521,0,2.756-1.233,2.756-2.756s-1.235-2.756-2.756-2.756
		c-1.523,0-2.756,1.233-2.756,2.756S638.515,483.636,640.037,483.636z"/>
	<path fill="#FFFFFF" d="M621.666,514.867c-1.522,0-2.756,1.233-2.756,2.756c0,1.156,0.713,2.142,1.722,2.552
		c1.206-0.508,2.402-1.028,3.594-1.552c0.121-0.311,0.194-0.646,0.194-0.999C624.421,516.1,623.186,514.867,621.666,514.867z"/>
	<path fill="#FFFFFF" d="M603.295,441.383c-1.523,0-2.756,1.233-2.756,2.756s1.233,2.756,2.756,2.756
		c1.521,0,2.756-1.233,2.756-2.756S604.816,441.383,603.295,441.383z"/>
	<path fill="#FFFFFF" d="M603.295,428.523c1.311,0,2.404-0.918,2.683-2.146c-1.713-0.606-3.438-1.197-5.173-1.774
		c-0.166,0.354-0.266,0.746-0.266,1.163C600.539,427.289,601.772,428.523,603.295,428.523z"/>
	<path fill="#FFFFFF" d="M596.865,434.951c0-1.52-1.235-2.753-2.756-2.753c-1.522,0-2.756,1.234-2.756,2.753
		c0,1.522,1.233,2.756,2.756,2.756C595.63,437.707,596.865,436.474,596.865,434.951z"/>
	<path fill="#FFFFFF" d="M615.236,434.951c0-1.52-1.236-2.753-2.756-2.753c-1.523,0-2.756,1.234-2.756,2.753
		c0,1.522,1.233,2.756,2.756,2.756C614,437.707,615.236,436.474,615.236,434.951z"/>
	<path fill="#FFFFFF" d="M603.295,478.125c-1.523,0-2.756,1.233-2.756,2.756s1.233,2.756,2.756,2.756
		c1.521,0,2.756-1.233,2.756-2.756S604.816,478.125,603.295,478.125z"/>
	<path fill="#FFFFFF" d="M603.295,459.753c-1.523,0-2.756,1.233-2.756,2.756s1.233,2.756,2.756,2.756
		c1.521,0,2.756-1.233,2.756-2.756S604.816,459.753,603.295,459.753z"/>
	<path fill="#FFFFFF" d="M594.109,468.94c-1.522,0-2.756,1.233-2.756,2.753c0,1.522,1.233,2.756,2.756,2.756
		c1.521,0,2.756-1.233,2.756-2.756C596.865,470.174,595.63,468.94,594.109,468.94z"/>
	<path fill="#FFFFFF" d="M612.481,468.94c-1.523,0-2.756,1.233-2.756,2.753c0,1.522,1.233,2.756,2.756,2.756
		c1.52,0,2.756-1.233,2.756-2.756C615.236,470.174,614,468.94,612.481,468.94z"/>
	<path fill="#FFFFFF" d="M594.109,450.568c-1.522,0-2.756,1.233-2.756,2.756c0,1.52,1.233,2.753,2.756,2.753
		c1.521,0,2.756-1.233,2.756-2.753C596.865,451.802,595.63,450.568,594.109,450.568z"/>
	<path fill="#FFFFFF" d="M612.481,450.568c-1.523,0-2.756,1.233-2.756,2.756c0,1.52,1.233,2.753,2.756,2.753
		c1.52,0,2.756-1.233,2.756-2.753C615.236,451.802,614,450.568,612.481,450.568z"/>
	<path fill="#FFFFFF" d="M584.924,478.125c-1.522,0-2.756,1.233-2.756,2.756s1.233,2.756,2.756,2.756
		c1.52,0,2.754-1.233,2.754-2.756S586.444,478.125,584.924,478.125z"/>
	<path fill="#FFFFFF" d="M584.924,459.753c-1.522,0-2.756,1.233-2.756,2.756s1.233,2.756,2.756,2.756
		c1.52,0,2.754-1.233,2.754-2.756S586.444,459.753,584.924,459.753z"/>
	<path fill="#FFFFFF" d="M603.295,514.867c-1.523,0-2.756,1.233-2.756,2.756s1.233,2.756,2.756,2.756
		c1.521,0,2.756-1.233,2.756-2.756S604.816,514.867,603.295,514.867z"/>
	<path fill="#FFFFFF" d="M603.295,496.495c-1.523,0-2.756,1.233-2.756,2.756s1.233,2.756,2.756,2.756
		c1.521,0,2.756-1.233,2.756-2.756S604.816,496.495,603.295,496.495z"/>
	<path fill="#FFFFFF" d="M594.109,505.682c-1.522,0-2.756,1.233-2.756,2.753c0,1.522,1.233,2.756,2.756,2.756
		c1.521,0,2.756-1.233,2.756-2.756C596.865,506.916,595.63,505.682,594.109,505.682z"/>
	<path fill="#FFFFFF" d="M612.481,505.682c-1.523,0-2.756,1.233-2.756,2.753c0,1.522,1.233,2.756,2.756,2.756
		c1.52,0,2.756-1.233,2.756-2.756C615.236,506.916,614,505.682,612.481,505.682z"/>
	<path fill="#FFFFFF" d="M594.109,487.311c-1.522,0-2.756,1.233-2.756,2.756c0,1.52,1.233,2.753,2.756,2.753
		c1.521,0,2.756-1.233,2.756-2.753C596.865,488.544,595.63,487.311,594.109,487.311z"/>
	<path fill="#FFFFFF" d="M612.481,487.311c-1.523,0-2.756,1.233-2.756,2.756c0,1.52,1.233,2.753,2.756,2.753
		c1.52,0,2.756-1.233,2.756-2.753C615.236,488.544,614,487.311,612.481,487.311z"/>
	<path fill="#FFFFFF" d="M584.924,514.867c-1.522,0-2.756,1.233-2.756,2.756s1.233,2.756,2.756,2.756
		c1.52,0,2.754-1.233,2.754-2.756S586.444,514.867,584.924,514.867z"/>
	<path fill="#FFFFFF" d="M584.924,496.495c-1.522,0-2.756,1.233-2.756,2.756s1.233,2.756,2.756,2.756
		c1.52,0,2.754-1.233,2.754-2.756S586.444,496.495,584.924,496.495z"/>
	<path fill="#FFFFFF" d="M591.353,526.808c0,1.52,1.233,2.753,2.756,2.753c1.521,0,2.756-1.233,2.756-2.753
		c0-1.522-1.235-2.756-2.756-2.756C592.586,524.052,591.353,525.286,591.353,526.808z"/>
	<path fill="#FFFFFF" d="M584.924,428.523c1.52,0,2.754-1.233,2.754-2.756s-1.234-2.756-2.754-2.756
		c-1.522,0-2.756,1.233-2.756,2.756S583.401,428.523,584.924,428.523z"/>
	<circle fill="#FFFFFF" cx="566.552" cy="425.767" r="2.756"/>
	<path fill="#FFFFFF" d="M557.366,437.707c1.521,0,2.756-1.233,2.756-2.756c0-1.52-1.235-2.753-2.756-2.753
		c-1.522,0-2.756,1.234-2.756,2.753C554.61,436.474,555.844,437.707,557.366,437.707z"/>
	<path fill="#FFFFFF" d="M578.493,434.951c0-1.52-1.236-2.753-2.756-2.753c-1.523,0-2.756,1.234-2.756,2.753
		c0,1.522,1.233,2.756,2.756,2.756C577.258,437.707,578.493,436.474,578.493,434.951z"/>
	<path fill="#FFFFFF" d="M557.366,419.336c1.521,0,2.756-1.234,2.756-2.753c0-1.522-1.235-2.756-2.756-2.756
		c-1.522,0-2.756,1.233-2.756,2.756C554.61,418.102,555.844,419.336,557.366,419.336z"/>
	<path fill="#FFFFFF" d="M575.738,419.336c0.988,0,1.849-0.526,2.335-1.308c-1.682-0.417-3.372-0.822-5.068-1.214
		C573.125,418.224,574.295,419.336,575.738,419.336z"/>
	<circle fill="#FFFFFF" cx="566.552" cy="480.88" r="2.756"/>
	<circle fill="#FFFFFF" cx="566.552" cy="462.509" r="2.756"/>
	<path fill="#FFFFFF" d="M557.366,468.94c-1.522,0-2.756,1.233-2.756,2.753c0,1.522,1.233,2.756,2.756,2.756
		c1.521,0,2.756-1.233,2.756-2.756C560.122,470.174,558.887,468.94,557.366,468.94z"/>
	<path fill="#FFFFFF" d="M575.738,468.94c-1.523,0-2.756,1.233-2.756,2.753c0,1.522,1.233,2.756,2.756,2.756
		c1.52,0,2.756-1.233,2.756-2.756C578.493,470.174,577.258,468.94,575.738,468.94z"/>
	<path fill="#FFFFFF" d="M557.366,450.568c-1.522,0-2.756,1.233-2.756,2.756c0,1.52,1.233,2.753,2.756,2.753
		c1.521,0,2.756-1.233,2.756-2.753C560.122,451.802,558.887,450.568,557.366,450.568z"/>
	<path fill="#FFFFFF" d="M575.738,450.568c-1.523,0-2.756,1.233-2.756,2.756c0,1.52,1.233,2.753,2.756,2.753
		c1.52,0,2.756-1.233,2.756-2.753C578.493,451.802,577.258,450.568,575.738,450.568z"/>
	<path fill="#FFFFFF" d="M548.181,478.125c-1.522,0-2.756,1.233-2.756,2.756s1.233,2.756,2.756,2.756
		c1.52,0,2.754-1.233,2.754-2.756S549.701,478.125,548.181,478.125z"/>
	<path fill="#FFFFFF" d="M548.181,459.753c-1.522,0-2.756,1.233-2.756,2.756s1.233,2.756,2.756,2.756
		c1.52,0,2.754-1.233,2.754-2.756S549.701,459.753,548.181,459.753z"/>
	<path fill="#FFFFFF" d="M584.924,446.894c1.52,0,2.754-1.233,2.754-2.756s-1.234-2.756-2.754-2.756
		c-1.522,0-2.756,1.233-2.756,2.756S583.401,446.894,584.924,446.894z"/>
	<circle fill="#FFFFFF" cx="566.552" cy="444.138" r="2.756"/>
	<circle fill="#FFFFFF" cx="566.552" cy="517.623" r="2.756"/>
	<circle fill="#FFFFFF" cx="566.552" cy="499.251" r="2.756"/>
	<path fill="#FFFFFF" d="M557.366,505.682c-1.522,0-2.756,1.233-2.756,2.753c0,1.522,1.233,2.756,2.756,2.756
		c1.521,0,2.756-1.233,2.756-2.756C560.122,506.916,558.887,505.682,557.366,505.682z"/>
	<path fill="#FFFFFF" d="M575.738,505.682c-1.523,0-2.756,1.233-2.756,2.753c0,1.522,1.233,2.756,2.756,2.756
		c1.52,0,2.756-1.233,2.756-2.756C578.493,506.916,577.258,505.682,575.738,505.682z"/>
	<path fill="#FFFFFF" d="M557.366,487.311c-1.522,0-2.756,1.233-2.756,2.756c0,1.52,1.233,2.753,2.756,2.753
		c1.521,0,2.756-1.233,2.756-2.753C560.122,488.544,558.887,487.311,557.366,487.311z"/>
	<path fill="#FFFFFF" d="M575.738,487.311c-1.523,0-2.756,1.233-2.756,2.756c0,1.52,1.233,2.753,2.756,2.753
		c1.52,0,2.756-1.233,2.756-2.753C578.493,488.544,577.258,487.311,575.738,487.311z"/>
	<path fill="#FFFFFF" d="M548.181,514.867c-1.522,0-2.756,1.233-2.756,2.756s1.233,2.756,2.756,2.756
		c1.52,0,2.754-1.233,2.754-2.756S549.701,514.867,548.181,514.867z"/>
	<path fill="#FFFFFF" d="M548.181,496.495c-1.522,0-2.756,1.233-2.756,2.756s1.233,2.756,2.756,2.756
		c1.52,0,2.754-1.233,2.754-2.756S549.701,496.495,548.181,496.495z"/>
	<path fill="#FFFFFF" d="M566.552,533.237c-1.522,0-2.756,1.233-2.756,2.756c0,0.485,0.136,0.934,0.356,1.33
		c1.717-0.348,3.427-0.709,5.131-1.083c0.008-0.083,0.025-0.163,0.025-0.248C569.308,534.47,568.073,533.237,566.552,533.237z"/>
	<path fill="#FFFFFF" d="M554.61,526.808c0,1.52,1.233,2.753,2.756,2.753c1.521,0,2.756-1.233,2.756-2.753
		c0-1.522-1.235-2.756-2.756-2.756C555.844,524.052,554.61,525.286,554.61,526.808z"/>
	<path fill="#FFFFFF" d="M572.982,526.808c0,1.52,1.233,2.753,2.756,2.753c1.52,0,2.756-1.233,2.756-2.753
		c0-1.522-1.236-2.756-2.756-2.756C574.215,524.052,572.982,525.286,572.982,526.808z"/>
	<path fill="#FFFFFF" d="M548.181,533.237c-1.522,0-2.756,1.233-2.756,2.756s1.233,2.756,2.756,2.756
		c1.52,0,2.754-1.233,2.754-2.756S549.701,533.237,548.181,533.237z"/>
	<path fill="#FFFFFF" d="M548.181,428.523c1.52,0,2.754-1.233,2.754-2.756s-1.234-2.756-2.754-2.756
		c-1.522,0-2.756,1.233-2.756,2.756S546.659,428.523,548.181,428.523z"/>
	<circle fill="#FFFFFF" cx="529.809" cy="425.767" r="2.756"/>
	<path fill="#FFFFFF" d="M520.623,437.707c1.521,0,2.756-1.233,2.756-2.756c0-1.52-1.235-2.753-2.756-2.753
		c-1.522,0-2.756,1.234-2.756,2.753C517.867,436.474,519.101,437.707,520.623,437.707z"/>
	<path fill="#FFFFFF" d="M538.995,437.707c1.52,0,2.756-1.233,2.756-2.756c0-1.52-1.236-2.753-2.756-2.753
		c-1.522,0-2.756,1.234-2.756,2.753C536.239,436.474,537.473,437.707,538.995,437.707z"/>
	<path fill="#FFFFFF" d="M520.623,419.336c1.521,0,2.756-1.234,2.756-2.753c0-1.522-1.235-2.756-2.756-2.756
		c-1.522,0-2.756,1.233-2.756,2.756C517.867,418.102,519.101,419.336,520.623,419.336z"/>
	<path fill="#FFFFFF" d="M538.995,419.336c1.52,0,2.756-1.234,2.756-2.753c0-1.522-1.236-2.756-2.756-2.756
		c-1.522,0-2.756,1.233-2.756,2.756C536.239,418.102,537.473,419.336,538.995,419.336z"/>
	<path fill="#FFFFFF" d="M531.089,409.823c-1.011-0.107-2.021-0.218-3.034-0.317c0.478,0.398,1.084,0.646,1.754,0.646
		C530.274,410.152,530.705,410.026,531.089,409.823z"/>
	<circle fill="#FFFFFF" cx="529.809" cy="480.88" r="2.756"/>
	<circle fill="#FFFFFF" cx="529.809" cy="462.509" r="2.756"/>
	<path fill="#FFFFFF" d="M520.623,468.94c-1.522,0-2.756,1.233-2.756,2.753c0,1.522,1.233,2.756,2.756,2.756
		c1.521,0,2.756-1.233,2.756-2.756C523.379,470.174,522.145,468.94,520.623,468.94z"/>
	<path fill="#FFFFFF" d="M538.995,468.94c-1.522,0-2.756,1.233-2.756,2.753c0,1.522,1.234,2.756,2.756,2.756
		c1.52,0,2.756-1.233,2.756-2.756C541.751,470.174,540.515,468.94,538.995,468.94z"/>
	<path fill="#FFFFFF" d="M520.623,450.568c-1.522,0-2.756,1.233-2.756,2.756c0,1.52,1.233,2.753,2.756,2.753
		c1.521,0,2.756-1.233,2.756-2.753C523.379,451.802,522.145,450.568,520.623,450.568z"/>
	<path fill="#FFFFFF" d="M538.995,450.568c-1.522,0-2.756,1.233-2.756,2.756c0,1.52,1.234,2.753,2.756,2.753
		c1.52,0,2.756-1.233,2.756-2.753C541.751,451.802,540.515,450.568,538.995,450.568z"/>
	<path fill="#FFFFFF" d="M511.438,478.125c-1.522,0-2.756,1.233-2.756,2.756s1.233,2.756,2.756,2.756
		c1.52,0,2.754-1.233,2.754-2.756S512.958,478.125,511.438,478.125z"/>
	<path fill="#FFFFFF" d="M511.438,459.753c-1.522,0-2.756,1.233-2.756,2.756s1.233,2.756,2.756,2.756
		c1.52,0,2.754-1.233,2.754-2.756S512.958,459.753,511.438,459.753z"/>
	<path fill="#FFFFFF" d="M548.181,446.894c1.52,0,2.754-1.233,2.754-2.756s-1.234-2.756-2.754-2.756
		c-1.522,0-2.756,1.233-2.756,2.756S546.659,446.894,548.181,446.894z"/>
	<circle fill="#FFFFFF" cx="529.809" cy="444.138" r="2.756"/>
	<circle fill="#FFFFFF" cx="529.809" cy="517.623" r="2.756"/>
	<circle fill="#FFFFFF" cx="529.809" cy="499.251" r="2.756"/>
	<path fill="#FFFFFF" d="M520.623,505.682c-1.522,0-2.756,1.233-2.756,2.753c0,1.522,1.233,2.756,2.756,2.756
		c1.521,0,2.756-1.233,2.756-2.756C523.379,506.916,522.145,505.682,520.623,505.682z"/>
	<path fill="#FFFFFF" d="M538.995,505.682c-1.522,0-2.756,1.233-2.756,2.753c0,1.522,1.234,2.756,2.756,2.756
		c1.52,0,2.756-1.233,2.756-2.756C541.751,506.916,540.515,505.682,538.995,505.682z"/>
	<path fill="#FFFFFF" d="M520.623,487.311c-1.522,0-2.756,1.233-2.756,2.756c0,1.52,1.233,2.753,2.756,2.753
		c1.521,0,2.756-1.233,2.756-2.753C523.379,488.544,522.145,487.311,520.623,487.311z"/>
	<path fill="#FFFFFF" d="M538.995,487.311c-1.522,0-2.756,1.233-2.756,2.756c0,1.52,1.234,2.753,2.756,2.753
		c1.52,0,2.756-1.233,2.756-2.753C541.751,488.544,540.515,487.311,538.995,487.311z"/>
	<path fill="#FFFFFF" d="M511.438,514.867c-1.522,0-2.756,1.233-2.756,2.756s1.233,2.756,2.756,2.756
		c1.52,0,2.754-1.233,2.754-2.756S512.958,514.867,511.438,514.867z"/>
	<path fill="#FFFFFF" d="M511.438,496.495c-1.522,0-2.756,1.233-2.756,2.756s1.233,2.756,2.756,2.756
		c1.52,0,2.754-1.233,2.754-2.756S512.958,496.495,511.438,496.495z"/>
	<circle fill="#FFFFFF" cx="529.809" cy="535.993" r="2.756"/>
	<path fill="#FFFFFF" d="M518.436,543.52c1.37-0.099,2.739-0.2,4.106-0.313c-0.497-0.483-1.172-0.782-1.919-0.782
		C519.727,542.424,518.94,542.858,518.436,543.52z"/>
	<path fill="#FFFFFF" d="M517.867,526.808c0,1.52,1.233,2.753,2.756,2.753c1.521,0,2.756-1.233,2.756-2.753
		c0-1.522-1.235-2.756-2.756-2.756C519.101,524.052,517.867,525.286,517.867,526.808z"/>
	<path fill="#FFFFFF" d="M536.239,526.808c0,1.52,1.234,2.753,2.756,2.753c1.52,0,2.756-1.233,2.756-2.753
		c0-1.522-1.236-2.756-2.756-2.756C537.473,524.052,536.239,525.286,536.239,526.808z"/>
	<path fill="#FFFFFF" d="M511.438,533.237c-1.522,0-2.756,1.233-2.756,2.756s1.233,2.756,2.756,2.756
		c1.52,0,2.754-1.233,2.754-2.756S512.958,533.237,511.438,533.237z"/>
	<path fill="#FFFFFF" d="M511.438,428.523c1.52,0,2.754-1.233,2.754-2.756s-1.234-2.756-2.754-2.756
		c-1.522,0-2.756,1.233-2.756,2.756S509.916,428.523,511.438,428.523z"/>
	<circle fill="#FFFFFF" cx="493.067" cy="425.767" r="2.756"/>
	<path fill="#FFFFFF" d="M483.881,437.707c1.521,0,2.756-1.233,2.756-2.756c0-1.52-1.235-2.753-2.756-2.753
		c-1.522,0-2.756,1.234-2.756,2.753C481.125,436.474,482.358,437.707,483.881,437.707z"/>
	<path fill="#FFFFFF" d="M502.253,437.707c1.52,0,2.756-1.233,2.756-2.756c0-1.52-1.236-2.753-2.756-2.753
		c-1.522,0-2.756,1.234-2.756,2.753C499.497,436.474,500.73,437.707,502.253,437.707z"/>
	<path fill="#FFFFFF" d="M483.881,419.336c1.521,0,2.756-1.234,2.756-2.753c0-1.522-1.235-2.756-2.756-2.756
		c-1.522,0-2.756,1.233-2.756,2.756C481.125,418.102,482.358,419.336,483.881,419.336z"/>
	<path fill="#FFFFFF" d="M502.253,419.336c1.52,0,2.756-1.234,2.756-2.753c0-1.522-1.236-2.756-2.756-2.756
		c-1.522,0-2.756,1.233-2.756,2.756C499.497,418.102,500.73,419.336,502.253,419.336z"/>
	<path fill="#FFFFFF" d="M511.438,410.152c1.165,0,2.156-0.727,2.559-1.75c-1.733-0.104-3.468-0.197-5.205-0.277
		C509.113,409.291,510.17,410.152,511.438,410.152z"/>
	<path fill="#FFFFFF" d="M490.342,407.709c0.157,1.373,1.309,2.443,2.725,2.443c1.404,0,2.552-1.055,2.721-2.415
		C493.973,407.715,492.158,407.706,490.342,407.709z"/>
	<circle fill="#FFFFFF" cx="493.067" cy="480.88" r="2.756"/>
	<circle fill="#FFFFFF" cx="493.067" cy="462.509" r="2.756"/>
	<path fill="#FFFFFF" d="M483.881,468.94c-1.522,0-2.756,1.233-2.756,2.753c0,1.522,1.233,2.756,2.756,2.756
		c1.521,0,2.756-1.233,2.756-2.756C486.637,470.174,485.402,468.94,483.881,468.94z"/>
	<path fill="#FFFFFF" d="M502.253,468.94c-1.522,0-2.756,1.233-2.756,2.753c0,1.522,1.233,2.756,2.756,2.756
		c1.52,0,2.756-1.233,2.756-2.756C505.008,470.174,503.773,468.94,502.253,468.94z"/>
	<path fill="#FFFFFF" d="M483.881,450.568c-1.522,0-2.756,1.233-2.756,2.756c0,1.52,1.233,2.753,2.756,2.753
		c1.521,0,2.756-1.233,2.756-2.753C486.637,451.802,485.402,450.568,483.881,450.568z"/>
	<path fill="#FFFFFF" d="M502.253,450.568c-1.522,0-2.756,1.233-2.756,2.756c0,1.52,1.233,2.753,2.756,2.753
		c1.52,0,2.756-1.233,2.756-2.753C505.008,451.802,503.773,450.568,502.253,450.568z"/>
	<path fill="#FFFFFF" d="M474.696,478.125c-1.522,0-2.756,1.233-2.756,2.756s1.233,2.756,2.756,2.756
		c1.52,0,2.755-1.233,2.755-2.756S476.216,478.125,474.696,478.125z"/>
	<path fill="#FFFFFF" d="M474.696,459.753c-1.522,0-2.756,1.233-2.756,2.756s1.233,2.756,2.756,2.756
		c1.52,0,2.755-1.233,2.755-2.756S476.216,459.753,474.696,459.753z"/>
	<path fill="#FFFFFF" d="M511.438,446.894c1.52,0,2.754-1.233,2.754-2.756s-1.234-2.756-2.754-2.756
		c-1.522,0-2.756,1.233-2.756,2.756S509.916,446.894,511.438,446.894z"/>
	<circle fill="#FFFFFF" cx="493.067" cy="444.138" r="2.756"/>
	<circle fill="#FFFFFF" cx="493.067" cy="517.623" r="2.756"/>
	<circle fill="#FFFFFF" cx="493.067" cy="499.251" r="2.756"/>
	<path fill="#FFFFFF" d="M483.881,505.682c-1.522,0-2.756,1.233-2.756,2.753c0,1.522,1.233,2.756,2.756,2.756
		c1.521,0,2.756-1.233,2.756-2.756C486.637,506.916,485.402,505.682,483.881,505.682z"/>
	<path fill="#FFFFFF" d="M502.253,505.682c-1.522,0-2.756,1.233-2.756,2.753c0,1.522,1.233,2.756,2.756,2.756
		c1.52,0,2.756-1.233,2.756-2.756C505.008,506.916,503.773,505.682,502.253,505.682z"/>
	<path fill="#FFFFFF" d="M483.881,487.311c-1.522,0-2.756,1.233-2.756,2.756c0,1.52,1.233,2.753,2.756,2.753
		c1.521,0,2.756-1.233,2.756-2.753C486.637,488.544,485.402,487.311,483.881,487.311z"/>
	<path fill="#FFFFFF" d="M502.253,487.311c-1.522,0-2.756,1.233-2.756,2.756c0,1.52,1.233,2.753,2.756,2.753
		c1.52,0,2.756-1.233,2.756-2.753C505.008,488.544,503.773,487.311,502.253,487.311z"/>
	<path fill="#FFFFFF" d="M474.696,514.867c-1.522,0-2.756,1.233-2.756,2.756s1.233,2.756,2.756,2.756
		c1.52,0,2.755-1.233,2.755-2.756S476.216,514.867,474.696,514.867z"/>
	<path fill="#FFFFFF" d="M474.696,496.495c-1.522,0-2.756,1.233-2.756,2.756s1.233,2.756,2.756,2.756
		c1.52,0,2.755-1.233,2.755-2.756S476.216,496.495,474.696,496.495z"/>
	<circle fill="#FFFFFF" cx="493.067" cy="535.993" r="2.756"/>
	<path fill="#FFFFFF" d="M483.881,542.424c-1.242,0-2.28,0.827-2.624,1.955c1.759,0.045,3.519,0.078,5.279,0.098
		C486.223,543.298,485.158,542.424,483.881,542.424z"/>
	<path fill="#FFFFFF" d="M502.253,542.424c-1.251,0-2.295,0.839-2.632,1.979c1.74-0.039,3.478-0.09,5.216-0.153
		C504.454,543.189,503.446,542.424,502.253,542.424z"/>
	<path fill="#FFFFFF" d="M481.125,526.808c0,1.52,1.233,2.753,2.756,2.753c1.521,0,2.756-1.233,2.756-2.753
		c0-1.522-1.235-2.756-2.756-2.756C482.358,524.052,481.125,525.286,481.125,526.808z"/>
	<path fill="#FFFFFF" d="M499.497,526.808c0,1.52,1.233,2.753,2.756,2.753c1.52,0,2.756-1.233,2.756-2.753
		c0-1.522-1.236-2.756-2.756-2.756C500.73,524.052,499.497,525.286,499.497,526.808z"/>
	<path fill="#FFFFFF" d="M474.696,533.237c-1.522,0-2.756,1.233-2.756,2.756s1.233,2.756,2.756,2.756
		c1.52,0,2.755-1.233,2.755-2.756S476.216,533.237,474.696,533.237z"/>
	<path fill="#FFFFFF" d="M474.696,428.523c1.52,0,2.755-1.233,2.755-2.756s-1.235-2.756-2.755-2.756
		c-1.522,0-2.756,1.233-2.756,2.756S473.173,428.523,474.696,428.523z"/>
	<circle fill="#FFFFFF" cx="456.324" cy="425.767" r="2.756"/>
	<path fill="#FFFFFF" d="M447.138,437.707c1.521,0,2.756-1.233,2.756-2.756c0-1.52-1.235-2.753-2.756-2.753
		c-1.522,0-2.756,1.234-2.756,2.753C444.382,436.474,445.616,437.707,447.138,437.707z"/>
	<path fill="#FFFFFF" d="M465.51,437.707c1.52,0,2.756-1.233,2.756-2.756c0-1.52-1.236-2.753-2.756-2.753
		c-1.522,0-2.756,1.234-2.756,2.753C462.754,436.474,463.987,437.707,465.51,437.707z"/>
	<path fill="#FFFFFF" d="M447.138,419.336c1.521,0,2.756-1.234,2.756-2.753c0-1.522-1.235-2.756-2.756-2.756
		c-1.522,0-2.756,1.233-2.756,2.756C444.382,418.102,445.616,419.336,447.138,419.336z"/>
	<path fill="#FFFFFF" d="M465.51,419.336c1.52,0,2.756-1.234,2.756-2.753c0-1.522-1.236-2.756-2.756-2.756
		c-1.522,0-2.756,1.233-2.756,2.756C462.754,418.102,463.987,419.336,465.51,419.336z"/>
	<path fill="#FFFFFF" d="M474.696,410.152c1.329,0,2.439-0.942,2.697-2.197c-1.776,0.063-3.552,0.139-5.326,0.227
		C472.407,409.319,473.448,410.152,474.696,410.152z"/>
	<path fill="#FFFFFF" d="M456.324,410.152c0.876,0,1.647-0.417,2.152-1.054c-1.323,0.114-2.646,0.231-3.966,0.358
		C454.996,409.885,455.626,410.152,456.324,410.152z"/>
	<circle fill="#FFFFFF" cx="456.324" cy="480.88" r="2.756"/>
	<circle fill="#FFFFFF" cx="456.324" cy="462.509" r="2.756"/>
	<path fill="#FFFFFF" d="M447.138,468.94c-1.522,0-2.756,1.233-2.756,2.753c0,1.522,1.233,2.756,2.756,2.756
		c1.521,0,2.756-1.233,2.756-2.756C449.894,470.174,448.659,468.94,447.138,468.94z"/>
	<path fill="#FFFFFF" d="M465.51,468.94c-1.522,0-2.756,1.233-2.756,2.753c0,1.522,1.233,2.756,2.756,2.756
		c1.52,0,2.756-1.233,2.756-2.756C468.266,470.174,467.03,468.94,465.51,468.94z"/>
	<path fill="#FFFFFF" d="M447.138,450.568c-1.522,0-2.756,1.233-2.756,2.756c0,1.52,1.233,2.753,2.756,2.753
		c1.521,0,2.756-1.233,2.756-2.753C449.894,451.802,448.659,450.568,447.138,450.568z"/>
	<path fill="#FFFFFF" d="M465.51,450.568c-1.522,0-2.756,1.233-2.756,2.756c0,1.52,1.233,2.753,2.756,2.753
		c1.52,0,2.756-1.233,2.756-2.753C468.266,451.802,467.03,450.568,465.51,450.568z"/>
	<path fill="#FFFFFF" d="M437.953,478.125c-1.522,0-2.756,1.233-2.756,2.756s1.233,2.756,2.756,2.756
		c1.52,0,2.755-1.233,2.755-2.756S439.473,478.125,437.953,478.125z"/>
	<path fill="#FFFFFF" d="M437.953,459.753c-1.522,0-2.756,1.233-2.756,2.756s1.233,2.756,2.756,2.756
		c1.52,0,2.755-1.233,2.755-2.756S439.473,459.753,437.953,459.753z"/>
	<path fill="#FFFFFF" d="M474.696,446.894c1.52,0,2.755-1.233,2.755-2.756s-1.235-2.756-2.755-2.756
		c-1.522,0-2.756,1.233-2.756,2.756S473.173,446.894,474.696,446.894z"/>
	<circle fill="#FFFFFF" cx="456.324" cy="444.138" r="2.756"/>
	<circle fill="#FFFFFF" cx="456.324" cy="517.623" r="2.756"/>
	<circle fill="#FFFFFF" cx="456.324" cy="499.251" r="2.756"/>
	<path fill="#FFFFFF" d="M447.138,505.682c-1.522,0-2.756,1.233-2.756,2.753c0,1.522,1.233,2.756,2.756,2.756
		c1.521,0,2.756-1.233,2.756-2.756C449.894,506.916,448.659,505.682,447.138,505.682z"/>
	<path fill="#FFFFFF" d="M465.51,505.682c-1.522,0-2.756,1.233-2.756,2.753c0,1.522,1.233,2.756,2.756,2.756
		c1.52,0,2.756-1.233,2.756-2.756C468.266,506.916,467.03,505.682,465.51,505.682z"/>
	<path fill="#FFFFFF" d="M447.138,487.311c-1.522,0-2.756,1.233-2.756,2.756c0,1.52,1.233,2.753,2.756,2.753
		c1.521,0,2.756-1.233,2.756-2.753C449.894,488.544,448.659,487.311,447.138,487.311z"/>
	<path fill="#FFFFFF" d="M465.51,487.311c-1.522,0-2.756,1.233-2.756,2.756c0,1.52,1.233,2.753,2.756,2.753
		c1.52,0,2.756-1.233,2.756-2.753C468.266,488.544,467.03,487.311,465.51,487.311z"/>
	<path fill="#FFFFFF" d="M437.953,514.867c-1.522,0-2.756,1.233-2.756,2.756s1.233,2.756,2.756,2.756
		c1.52,0,2.755-1.233,2.755-2.756S439.473,514.867,437.953,514.867z"/>
	<path fill="#FFFFFF" d="M437.953,496.495c-1.522,0-2.756,1.233-2.756,2.756s1.233,2.756,2.756,2.756
		c1.52,0,2.755-1.233,2.755-2.756S439.473,496.495,437.953,496.495z"/>
	<circle fill="#FFFFFF" cx="456.324" cy="535.993" r="2.756"/>
	<path fill="#FFFFFF" d="M465.51,542.424c-0.886,0-1.666,0.425-2.17,1.074c1.512,0.11,3.026,0.209,4.542,0.301
		C467.404,542.981,466.525,542.424,465.51,542.424z"/>
	<path fill="#FFFFFF" d="M444.382,526.808c0,1.52,1.233,2.753,2.756,2.753c1.521,0,2.756-1.233,2.756-2.753
		c0-1.522-1.235-2.756-2.756-2.756C445.616,524.052,444.382,525.286,444.382,526.808z"/>
	<path fill="#FFFFFF" d="M462.754,526.808c0,1.52,1.233,2.753,2.756,2.753c1.52,0,2.756-1.233,2.756-2.753
		c0-1.522-1.236-2.756-2.756-2.756C463.987,524.052,462.754,525.286,462.754,526.808z"/>
	<path fill="#FFFFFF" d="M437.953,533.237c-1.522,0-2.756,1.233-2.756,2.756s1.233,2.756,2.756,2.756
		c1.52,0,2.755-1.233,2.755-2.756S439.473,533.237,437.953,533.237z"/>
	<path fill="#FFFFFF" d="M437.953,428.523c1.52,0,2.755-1.233,2.755-2.756s-1.235-2.756-2.755-2.756
		c-1.522,0-2.756,1.233-2.756,2.756S436.43,428.523,437.953,428.523z"/>
	<circle fill="#FFFFFF" cx="419.581" cy="425.767" r="2.756"/>
	<path fill="#FFFFFF" d="M413.151,434.951c0-1.52-1.235-2.753-2.756-2.753c-1.522,0-2.756,1.234-2.756,2.753
		c0,1.522,1.233,2.756,2.756,2.756C411.917,437.707,413.151,436.474,413.151,434.951z"/>
	<path fill="#FFFFFF" d="M428.767,437.707c1.52,0,2.756-1.233,2.756-2.756c0-1.52-1.236-2.753-2.756-2.753
		c-1.522,0-2.756,1.234-2.756,2.753C426.011,436.474,427.245,437.707,428.767,437.707z"/>
	<path fill="#FFFFFF" d="M410.396,419.336c1.521,0,2.756-1.234,2.756-2.753c0-0.234-0.038-0.458-0.093-0.675
		c-1.796,0.392-3.583,0.8-5.364,1.219C407.948,418.386,409.06,419.336,410.396,419.336z"/>
	<path fill="#FFFFFF" d="M428.767,419.336c1.52,0,2.756-1.234,2.756-2.753c0-1.522-1.236-2.756-2.756-2.756
		c-1.522,0-2.756,1.233-2.756,2.756C426.011,418.102,427.245,419.336,428.767,419.336z"/>
	<circle fill="#FFFFFF" cx="419.581" cy="480.88" r="2.756"/>
	<circle fill="#FFFFFF" cx="419.581" cy="462.509" r="2.756"/>
	<path fill="#FFFFFF" d="M410.396,468.94c-1.522,0-2.756,1.233-2.756,2.753c0,1.522,1.233,2.756,2.756,2.756
		c1.521,0,2.756-1.233,2.756-2.756C413.151,470.174,411.917,468.94,410.396,468.94z"/>
	<path fill="#FFFFFF" d="M428.767,468.94c-1.522,0-2.756,1.233-2.756,2.753c0,1.522,1.233,2.756,2.756,2.756
		c1.52,0,2.756-1.233,2.756-2.756C431.523,470.174,430.287,468.94,428.767,468.94z"/>
	<path fill="#FFFFFF" d="M410.396,450.568c-1.522,0-2.756,1.233-2.756,2.756c0,1.52,1.233,2.753,2.756,2.753
		c1.521,0,2.756-1.233,2.756-2.753C413.151,451.802,411.917,450.568,410.396,450.568z"/>
	<path fill="#FFFFFF" d="M428.767,450.568c-1.522,0-2.756,1.233-2.756,2.756c0,1.52,1.233,2.753,2.756,2.753
		c1.52,0,2.756-1.233,2.756-2.753C431.523,451.802,430.287,450.568,428.767,450.568z"/>
	<path fill="#FFFFFF" d="M401.21,478.125c-1.522,0-2.756,1.233-2.756,2.756s1.233,2.756,2.756,2.756c1.52,0,2.755-1.233,2.755-2.756
		S402.73,478.125,401.21,478.125z"/>
	<path fill="#FFFFFF" d="M401.21,459.753c-1.522,0-2.756,1.233-2.756,2.756s1.233,2.756,2.756,2.756c1.52,0,2.755-1.233,2.755-2.756
		S402.73,459.753,401.21,459.753z"/>
	<path fill="#FFFFFF" d="M437.953,446.894c1.52,0,2.755-1.233,2.755-2.756s-1.235-2.756-2.755-2.756
		c-1.522,0-2.756,1.233-2.756,2.756S436.43,446.894,437.953,446.894z"/>
	<circle fill="#FFFFFF" cx="419.581" cy="444.138" r="2.756"/>
	<circle fill="#FFFFFF" cx="419.581" cy="517.623" r="2.756"/>
	<circle fill="#FFFFFF" cx="419.581" cy="499.251" r="2.756"/>
	<path fill="#FFFFFF" d="M410.396,505.682c-1.522,0-2.756,1.233-2.756,2.753c0,1.522,1.233,2.756,2.756,2.756
		c1.521,0,2.756-1.233,2.756-2.756C413.151,506.916,411.917,505.682,410.396,505.682z"/>
	<path fill="#FFFFFF" d="M428.767,505.682c-1.522,0-2.756,1.233-2.756,2.753c0,1.522,1.233,2.756,2.756,2.756
		c1.52,0,2.756-1.233,2.756-2.756C431.523,506.916,430.287,505.682,428.767,505.682z"/>
	<path fill="#FFFFFF" d="M410.396,487.311c-1.522,0-2.756,1.233-2.756,2.756c0,1.52,1.233,2.753,2.756,2.753
		c1.521,0,2.756-1.233,2.756-2.753C413.151,488.544,411.917,487.311,410.396,487.311z"/>
	<path fill="#FFFFFF" d="M428.767,487.311c-1.522,0-2.756,1.233-2.756,2.756c0,1.52,1.233,2.753,2.756,2.753
		c1.52,0,2.756-1.233,2.756-2.753C431.523,488.544,430.287,487.311,428.767,487.311z"/>
	<path fill="#FFFFFF" d="M401.21,514.867c-1.522,0-2.756,1.233-2.756,2.756s1.233,2.756,2.756,2.756c1.52,0,2.755-1.233,2.755-2.756
		S402.73,514.867,401.21,514.867z"/>
	<path fill="#FFFFFF" d="M401.21,496.495c-1.522,0-2.756,1.233-2.756,2.756s1.233,2.756,2.756,2.756c1.52,0,2.755-1.233,2.755-2.756
		S402.73,496.495,401.21,496.495z"/>
	<path fill="#FFFFFF" d="M422.337,535.993c0-1.522-1.235-2.756-2.756-2.756c-1.522,0-2.756,1.233-2.756,2.756
		c0,0.416,0.099,0.806,0.263,1.159c1.447,0.297,2.898,0.583,4.354,0.862C421.989,537.51,422.337,536.795,422.337,535.993z"/>
	<path fill="#FFFFFF" d="M407.64,526.808c0,1.52,1.233,2.753,2.756,2.753c1.521,0,2.756-1.233,2.756-2.753
		c0-1.522-1.235-2.756-2.756-2.756C408.873,524.052,407.64,525.286,407.64,526.808z"/>
	<path fill="#FFFFFF" d="M426.011,526.808c0,1.52,1.233,2.753,2.756,2.753c1.52,0,2.756-1.233,2.756-2.753
		c0-1.522-1.236-2.756-2.756-2.756C427.245,524.052,426.011,525.286,426.011,526.808z"/>
	<path fill="#FFFFFF" d="M400.58,533.316c0.824,0.214,1.645,0.433,2.473,0.641c-0.489-0.443-1.131-0.72-1.842-0.72
		C400.992,533.237,400.783,533.269,400.58,533.316z"/>
	<circle fill="#FFFFFF" cx="382.839" cy="444.138" r="2.756"/>
	<path fill="#FFFFFF" d="M401.21,428.523c1.52,0,2.755-1.233,2.755-2.756s-1.235-2.756-2.755-2.756
		c-1.522,0-2.756,1.233-2.756,2.756S399.688,428.523,401.21,428.523z"/>
	<path fill="#FFFFFF" d="M382.839,428.523c1.521,0,2.756-1.233,2.756-2.756c0-0.913-0.449-1.716-1.133-2.218
		c-1.42,0.454-2.833,0.92-4.239,1.394c-0.083,0.262-0.139,0.535-0.139,0.824C380.083,427.289,381.316,428.523,382.839,428.523z"/>
	<path fill="#FFFFFF" d="M376.409,434.951c0-1.52-1.234-2.753-2.756-2.753c-1.522,0-2.756,1.234-2.756,2.753
		c0,1.522,1.233,2.756,2.756,2.756C375.174,437.707,376.409,436.474,376.409,434.951z"/>
	<path fill="#FFFFFF" d="M394.78,434.951c0-1.52-1.236-2.753-2.756-2.753c-1.522,0-2.756,1.234-2.756,2.753
		c0,1.522,1.234,2.756,2.756,2.756C393.544,437.707,394.78,436.474,394.78,434.951z"/>
	<path fill="#FFFFFF" d="M364.468,441.383c-1.522,0-2.756,1.233-2.756,2.756s1.233,2.756,2.756,2.756
		c1.52,0,2.755-1.233,2.755-2.756S365.988,441.383,364.468,441.383z"/>
	<circle fill="#FFFFFF" cx="382.839" cy="480.88" r="2.756"/>
	<circle fill="#FFFFFF" cx="382.839" cy="462.509" r="2.756"/>
	<path fill="#FFFFFF" d="M373.653,468.94c-1.522,0-2.756,1.233-2.756,2.753c0,1.522,1.233,2.756,2.756,2.756
		c1.521,0,2.756-1.233,2.756-2.756C376.409,470.174,375.174,468.94,373.653,468.94z"/>
	<path fill="#FFFFFF" d="M392.024,468.94c-1.522,0-2.756,1.233-2.756,2.753c0,1.522,1.234,2.756,2.756,2.756
		c1.52,0,2.756-1.233,2.756-2.756C394.78,470.174,393.544,468.94,392.024,468.94z"/>
	<path fill="#FFFFFF" d="M373.653,450.568c-1.522,0-2.756,1.233-2.756,2.756c0,1.52,1.233,2.753,2.756,2.753
		c1.521,0,2.756-1.233,2.756-2.753C376.409,451.802,375.174,450.568,373.653,450.568z"/>
	<path fill="#FFFFFF" d="M392.024,450.568c-1.522,0-2.756,1.233-2.756,2.756c0,1.52,1.234,2.753,2.756,2.753
		c1.52,0,2.756-1.233,2.756-2.753C394.78,451.802,393.544,450.568,392.024,450.568z"/>
	<path fill="#FFFFFF" d="M364.468,478.125c-1.522,0-2.756,1.233-2.756,2.756s1.233,2.756,2.756,2.756
		c1.52,0,2.755-1.233,2.755-2.756S365.988,478.125,364.468,478.125z"/>
	<path fill="#FFFFFF" d="M364.468,459.753c-1.522,0-2.756,1.233-2.756,2.756s1.233,2.756,2.756,2.756
		c1.52,0,2.755-1.233,2.755-2.756S365.988,459.753,364.468,459.753z"/>
	<path fill="#FFFFFF" d="M401.21,446.894c1.52,0,2.755-1.233,2.755-2.756s-1.235-2.756-2.755-2.756
		c-1.522,0-2.756,1.233-2.756,2.756S399.688,446.894,401.21,446.894z"/>
	<circle fill="#FFFFFF" cx="382.839" cy="517.623" r="2.756"/>
	<circle fill="#FFFFFF" cx="382.839" cy="499.251" r="2.756"/>
	<path fill="#FFFFFF" d="M373.653,505.682c-1.522,0-2.756,1.233-2.756,2.753c0,1.522,1.233,2.756,2.756,2.756
		c1.521,0,2.756-1.233,2.756-2.756C376.409,506.916,375.174,505.682,373.653,505.682z"/>
	<path fill="#FFFFFF" d="M392.024,505.682c-1.522,0-2.756,1.233-2.756,2.753c0,1.522,1.234,2.756,2.756,2.756
		c1.52,0,2.756-1.233,2.756-2.756C394.78,506.916,393.544,505.682,392.024,505.682z"/>
	<path fill="#FFFFFF" d="M373.653,487.311c-1.522,0-2.756,1.233-2.756,2.756c0,1.52,1.233,2.753,2.756,2.753
		c1.521,0,2.756-1.233,2.756-2.753C376.409,488.544,375.174,487.311,373.653,487.311z"/>
	<path fill="#FFFFFF" d="M392.024,487.311c-1.522,0-2.756,1.233-2.756,2.756c0,1.52,1.234,2.753,2.756,2.753
		c1.52,0,2.756-1.233,2.756-2.753C394.78,488.544,393.544,487.311,392.024,487.311z"/>
	<path fill="#FFFFFF" d="M364.468,514.867c-1.522,0-2.756,1.233-2.756,2.756s1.233,2.756,2.756,2.756
		c1.52,0,2.755-1.233,2.755-2.756S365.988,514.867,364.468,514.867z"/>
	<path fill="#FFFFFF" d="M364.468,496.495c-1.522,0-2.756,1.233-2.756,2.756s1.233,2.756,2.756,2.756
		c1.52,0,2.755-1.233,2.755-2.756S365.988,496.495,364.468,496.495z"/>
	<path fill="#FFFFFF" d="M373.653,524.052c-0.515,0-0.991,0.15-1.403,0.396c1.324,0.491,2.654,0.973,3.992,1.445
		C375.862,524.823,374.852,524.052,373.653,524.052z"/>
	<path fill="#FFFFFF" d="M389.268,526.808c0,1.52,1.234,2.753,2.756,2.753c1.52,0,2.756-1.233,2.756-2.753
		c0-1.522-1.236-2.756-2.756-2.756C390.502,524.052,389.268,525.286,389.268,526.808z"/>
	<circle fill="#FFFFFF" cx="346.096" cy="444.138" r="2.756"/>
	<path fill="#FFFFFF" d="M355.282,437.707c1.52,0,2.756-1.233,2.756-2.756c0-0.474-0.131-0.914-0.343-1.303
		c-1.676,0.738-3.341,1.489-4.989,2.259C353.096,436.956,354.097,437.707,355.282,437.707z"/>
	<circle fill="#FFFFFF" cx="346.096" cy="480.88" r="2.756"/>
	<circle fill="#FFFFFF" cx="346.096" cy="462.509" r="2.756"/>
	<path fill="#FFFFFF" d="M336.91,468.94c-1.522,0-2.756,1.233-2.756,2.753c0,1.522,1.233,2.756,2.756,2.756
		c1.521,0,2.756-1.233,2.756-2.756C339.666,470.174,338.431,468.94,336.91,468.94z"/>
	<path fill="#FFFFFF" d="M355.282,468.94c-1.522,0-2.756,1.233-2.756,2.753c0,1.522,1.233,2.756,2.756,2.756
		c1.52,0,2.756-1.233,2.756-2.756C358.038,470.174,356.802,468.94,355.282,468.94z"/>
	<path fill="#FFFFFF" d="M334.154,453.324c0,1.52,1.233,2.753,2.756,2.753c1.521,0,2.756-1.233,2.756-2.753
		c0-1.522-1.234-2.756-2.756-2.756C335.388,450.568,334.154,451.802,334.154,453.324z"/>
	<path fill="#FFFFFF" d="M355.282,450.568c-1.522,0-2.756,1.233-2.756,2.756c0,1.52,1.233,2.753,2.756,2.753
		c1.52,0,2.756-1.233,2.756-2.753C358.038,451.802,356.802,450.568,355.282,450.568z"/>
	<path fill="#FFFFFF" d="M327.725,478.125c-1.522,0-2.756,1.233-2.756,2.756s1.233,2.756,2.756,2.756
		c1.52,0,2.754-1.233,2.754-2.756S329.245,478.125,327.725,478.125z"/>
	<path fill="#FFFFFF" d="M324.969,462.509c0,1.522,1.233,2.756,2.756,2.756c1.52,0,2.754-1.233,2.754-2.756
		s-1.234-2.756-2.754-2.756C326.202,459.753,324.969,460.986,324.969,462.509z"/>
	<circle fill="#FFFFFF" cx="346.096" cy="499.251" r="2.756"/>
	<path fill="#FFFFFF" d="M336.91,505.682c-0.941,0-1.771,0.474-2.268,1.193c0.224,0.13,0.442,0.263,0.667,0.393
		c1.354,0.782,2.722,1.551,4.102,2.308c0.16-0.349,0.254-0.733,0.254-1.141C339.666,506.916,338.431,505.682,336.91,505.682z"/>
	<path fill="#FFFFFF" d="M358.038,508.436c0-1.52-1.236-2.753-2.756-2.753c-1.522,0-2.756,1.233-2.756,2.753
		c0,1.522,1.233,2.756,2.756,2.756C356.802,511.191,358.038,509.958,358.038,508.436z"/>
	<path fill="#FFFFFF" d="M334.154,490.066c0,1.52,1.233,2.753,2.756,2.753c1.521,0,2.756-1.233,2.756-2.753
		c0-1.522-1.234-2.756-2.756-2.756C335.388,487.311,334.154,488.544,334.154,490.066z"/>
	<path fill="#FFFFFF" d="M352.526,490.066c0,1.52,1.233,2.753,2.756,2.753c1.52,0,2.756-1.233,2.756-2.753
		c0-1.522-1.236-2.756-2.756-2.756C353.76,487.311,352.526,488.544,352.526,490.066z"/>
	<path fill="#FFFFFF" d="M327.725,496.495c-1.522,0-2.756,1.233-2.756,2.756s1.233,2.756,2.756,2.756
		c1.52,0,2.754-1.233,2.754-2.756S329.245,496.495,327.725,496.495z"/>
	<circle fill="#FFFFFF" cx="309.353" cy="480.88" r="2.756"/>
	<path fill="#FFFFFF" d="M312.109,462.509c0-0.539-0.161-1.038-0.429-1.463c-1.429,1.155-2.82,2.32-4.174,3.496
		c0.489,0.445,1.133,0.723,1.847,0.723C310.874,465.265,312.109,464.031,312.109,462.509z"/>
	<path fill="#FFFFFF" d="M302.924,471.693c0-0.835-0.38-1.574-0.968-2.079c-1.33,1.283-2.614,2.577-3.858,3.88
		c0.505,0.58,1.24,0.955,2.071,0.955C301.689,474.449,302.924,473.216,302.924,471.693z"/>
	<path fill="#FFFFFF" d="M318.539,468.94c-1.522,0-2.756,1.233-2.756,2.753c0,1.522,1.233,2.756,2.756,2.756
		c1.52,0,2.756-1.233,2.756-2.756C321.295,470.174,320.059,468.94,318.539,468.94z"/>
	<path fill="#FFFFFF" d="M321.24,453.869c-1.032,0.72-2.051,1.444-3.051,2.174c0.116,0.015,0.23,0.035,0.351,0.035
		C319.873,456.078,320.987,455.128,321.24,453.869z"/>
	<path fill="#FFFFFF" d="M315.784,490.066c0,1.52,1.233,2.753,2.756,2.753c1.52,0,2.756-1.233,2.756-2.753
		c0-1.522-1.236-2.756-2.756-2.756C317.017,487.311,315.784,488.544,315.784,490.066z"/>
</g>
<path fill="#FFFFFF" d="M936.21,650.393l0.3-0.52l-45.717-26.395l36.921-21.316l-0.3-0.52l-37.221,21.49l-49.594-28.633
	l36.921-21.316l-0.3-0.52l-37.221,21.49l-49.594-28.634l36.92-21.316l-0.3-0.52l-37.22,21.489l-49.595-28.634l36.921-21.316
	l-0.3-0.52l-37.221,21.49l-49.594-28.634l36.921-21.316l-0.3-0.52l-37.221,21.49l-49.594-28.633l36.921-21.316l-0.3-0.52
	l-37.221,21.489l-49.594-28.633l36.92-21.316l-0.3-0.52l-37.22,21.489l-49.595-28.634l36.921-21.316l-0.3-0.52l-37.221,21.49
	l-49.594-28.633l36.921-21.316l-0.3-0.52l-37.221,21.49l-44.552-25.722l-0.3,0.52l44.251,25.549l-49.595,28.634l-44.551-25.721
	l-0.3,0.52l44.251,25.548l-49.594,28.633l-44.551-25.721l-0.3,0.52L387.65,449.6l-49.594,28.633l-44.551-25.721l-0.3,0.52
	l44.25,25.548l-49.594,28.633l-44.551-25.721l-0.3,0.52l44.251,25.548l-49.594,28.633l-44.551-25.721l-0.3,0.52l44.251,25.548
	l-49.594,28.633l-44.551-25.722l-0.3,0.52l44.251,25.548l-49.594,28.633L92.728,568.43l-0.3,0.52l44.251,25.548l-49.594,28.633
	L42.534,597.41l-0.3,0.52l44.251,25.548l-44.251,25.548l0.3,0.52l44.551-25.721l49.594,28.633l-44.25,25.548l0.3,0.52l44.55-25.721
	l49.595,28.633l-44.25,25.548l0.3,0.52l44.55-25.721l49.594,28.633l-44.25,25.548l0.3,0.52l44.55-25.721l49.595,28.634
	l-44.25,25.548l0.3,0.52l44.551-25.721l49.594,28.634l-44.25,25.548l0.3,0.52l44.55-25.721l49.595,28.633l-44.25,25.548l0.3,0.52
	l44.55-25.721l49.595,28.634l-44.251,25.548l0.3,0.52l44.551-25.721l49.594,28.633l-44.25,25.548l0.3,0.52l44.551-25.721
	l46.017,26.568l0.3-0.52l-45.717-26.395l49.594-28.633l46.017,26.568l0.3-0.52l-45.717-26.395l49.594-28.633l46.017,26.568l0.3-0.52
	l-45.717-26.395l49.595-28.634l46.016,26.567l0.3-0.52l-45.716-26.394l49.594-28.633l46.016,26.568l0.3-0.52l-45.717-26.394
	l49.594-28.633l46.017,26.568l0.3-0.52l-45.717-26.395l49.594-28.633l46.017,26.568l0.3-0.52l-45.717-26.395l49.594-28.633
	l46.017,26.568l0.3-0.52l-45.717-26.395l49.594-28.633L936.21,650.393z M839.399,594.499l-49.594,28.633l-49.595-28.633
	l49.595-28.633L839.399,594.499z M488.039,623.478l-49.594,28.633l-49.595-28.634l49.594-28.633L488.039,623.478z M439.044,594.499
	l49.594-28.633l49.595,28.634l-49.594,28.633L439.044,594.499z M488.639,623.825l49.594,28.633l-49.594,28.633l-49.594-28.633
	L488.639,623.825z M489.239,623.478l49.594-28.633l49.594,28.633l-49.594,28.633L489.239,623.478z M539.433,594.499l49.594-28.633
	l49.594,28.633l-49.594,28.633L539.433,594.499z M538.833,594.152l-49.595-28.633l49.594-28.633l49.594,28.634L538.833,594.152z
	 M488.638,565.173l-49.594-28.633l49.594-28.633l49.594,28.633L488.638,565.173z M488.039,565.519l-49.594,28.633l-49.594-28.633
	l49.594-28.633L488.039,565.519z M437.845,594.499l-49.594,28.633l-49.594-28.633l49.594-28.633L437.845,594.499z M387.65,623.478
	l-49.594,28.633l-49.594-28.633l49.594-28.633L387.65,623.478z M388.25,623.824l49.595,28.634l-49.594,28.634l-49.595-28.634
	L388.25,623.824z M438.445,652.804l49.594,28.633l-49.595,28.633l-49.594-28.633L438.445,652.804z M488.639,681.784l49.595,28.634
	l-49.595,28.634l-49.594-28.634L488.639,681.784z M489.239,681.438l49.594-28.633l49.595,28.634l-49.594,28.633L489.239,681.438z
	 M539.433,652.458l49.594-28.633l49.595,28.634l-49.594,28.633L539.433,652.458z M589.627,623.478l49.594-28.633l49.595,28.634
	l-49.594,28.633L589.627,623.478z M639.821,594.499l49.594-28.633l49.595,28.634l-49.594,28.633L639.821,594.499z M639.221,594.152
	l-49.594-28.633l49.594-28.633l49.594,28.633L639.221,594.152z M589.027,565.173l-49.594-28.633l49.594-28.633l49.594,28.633
	L589.027,565.173z M538.833,536.193l-49.594-28.633l49.594-28.633l49.594,28.633L538.833,536.193z M488.638,507.214l-49.595-28.634
	l49.594-28.633l49.595,28.634L488.638,507.214z M488.039,507.56l-49.594,28.633l-49.595-28.634l49.594-28.633L488.039,507.56z
	 M437.845,536.54l-49.594,28.633l-49.595-28.634l49.594-28.633L437.845,536.54z M387.65,565.519l-49.594,28.633l-49.595-28.634
	l49.594-28.633L387.65,565.519z M337.456,594.499l-49.595,28.633l-49.594-28.634l49.594-28.633L337.456,594.499z M287.262,623.478
	l-49.594,28.633l-49.595-28.634l49.594-28.633L287.262,623.478z M287.862,623.824l49.594,28.633l-49.594,28.633l-49.594-28.633
	L287.862,623.824z M338.056,652.804l49.595,28.634l-49.594,28.633l-49.595-28.634L338.056,652.804z M388.251,681.784l49.594,28.633
	l-49.594,28.633l-49.594-28.633L388.251,681.784z M438.445,710.764l49.594,28.633l-49.594,28.633l-49.594-28.634L438.445,710.764z
	 M488.639,739.743l49.595,28.634L488.64,797.01l-49.595-28.634L488.639,739.743z M489.239,739.397l49.595-28.634l49.595,28.634
	l-49.595,28.634L489.239,739.397z M539.433,710.417l49.594-28.633l49.595,28.634l-49.594,28.633L539.433,710.417z M589.628,681.438
	l49.594-28.633l49.595,28.634l-49.594,28.633L589.628,681.438z M639.822,652.458l49.594-28.633l49.594,28.634l-49.594,28.633
	L639.822,652.458z M690.016,623.479l49.594-28.633l49.594,28.634l-49.594,28.633L690.016,623.479z M789.205,565.52l-49.594,28.633
	l-49.595-28.634l49.595-28.634L789.205,565.52z M739.01,536.54l-49.594,28.633l-49.594-28.633l49.594-28.633L739.01,536.54z
	 M688.816,507.56l-49.595,28.634l-49.594-28.633l49.595-28.634L688.816,507.56z M638.621,478.58l-49.595,28.633l-49.594-28.633
	l49.595-28.634L638.621,478.58z M588.427,449.601l-49.595,28.634l-49.595-28.634l49.595-28.634L588.427,449.601z M488.638,391.987
	l49.594,28.633l-49.595,28.634l-49.594-28.633L488.638,391.987z M438.443,420.967l49.594,28.633l-49.594,28.633L388.849,449.6
	L438.443,420.967z M388.249,449.947l49.594,28.633l-49.594,28.633l-49.595-28.633L388.249,449.947z M338.055,478.926l49.594,28.633
	l-49.594,28.633l-49.594-28.633L338.055,478.926z M287.861,507.906l49.595,28.633l-49.594,28.633l-49.595-28.633L287.861,507.906z
	 M237.667,536.885l49.594,28.633l-49.594,28.633l-49.594-28.633L237.667,536.885z M187.473,565.865l49.594,28.634l-49.594,28.633
	l-49.595-28.633L187.473,565.865z M87.685,623.478l49.594-28.633l49.594,28.633l-49.594,28.633L87.685,623.478z M137.879,652.457
	l49.594-28.633l49.594,28.633l-49.594,28.633L137.879,652.457z M188.074,681.437l49.594-28.633l49.594,28.633l-49.594,28.633
	L188.074,681.437z M238.267,710.417l49.594-28.633l49.595,28.634l-49.594,28.633L238.267,710.417z M288.462,739.397l49.594-28.633
	l49.594,28.633l-49.594,28.633L288.462,739.397z M338.657,768.376l49.594-28.633l49.594,28.633l-49.594,28.633L338.657,768.376z
	 M388.85,797.356l49.594-28.633l49.595,28.634l-49.594,28.633L388.85,797.356z M488.64,854.969l-49.594-28.634l49.594-28.633
	l49.594,28.633L488.64,854.969z M538.834,825.99l-49.594-28.634l49.594-28.633l49.594,28.633L538.834,825.99z M589.028,797.01
	l-49.594-28.633l49.595-28.634l49.594,28.633L589.028,797.01z M639.223,768.03l-49.594-28.633l49.594-28.633l49.594,28.633
	L639.223,768.03z M689.417,739.051l-49.594-28.633l49.594-28.633l49.594,28.633L689.417,739.051z M739.611,710.071l-49.594-28.633
	l49.594-28.633l49.594,28.633L739.611,710.071z M789.805,681.092l-49.594-28.633l49.594-28.633l49.594,28.633L789.805,681.092z
	 M839.999,652.112l-49.594-28.633l49.594-28.633l49.594,28.633L839.999,652.112z"/>
<g>
	<line fill="#FDD272" x1="638.588" y1="590.757" x2="613.872" y2="605.028"/>
</g>
<g>
	<g>
		<polyline fill="#FDC343" points="663.304,605.027 638.588,619.297 638.588,647.837 663.304,633.567 		"/>
	</g>
	<g>
		<polygon fill="#FDC343" points="613.872,519.408 613.872,490.868 638.589,476.598 638.589,505.138 		"/>
	</g>
	<g>
		<polygon fill="#FDC343" points="613.872,576.488 613.872,547.948 638.588,533.677 638.588,562.217 		"/>
	</g>
	<g>
		<polygon fill="#FFFFFF" points="589.155,619.298 589.155,647.838 613.871,633.568 613.872,605.028 		"/>
	</g>
	<g>
		<polygon fill="#FFFFFF" points="589.156,505.138 589.156,533.678 613.872,519.408 613.872,490.868 		"/>
	</g>
	<g>
		<polygon fill="#FDB515" points="564.439,547.948 564.44,519.408 589.156,505.138 589.156,533.678 		"/>
	</g>
	<g>
		<polygon fill="#FDD272" points="564.439,576.488 564.439,547.948 589.156,533.678 589.156,562.218 		"/>
	</g>
	<g>
		<polygon fill="#FDB515" points="539.664,619.332 539.664,590.792 564.38,576.522 564.38,605.062 		"/>
	</g>
	<g>
		<polygon fill="#FEDA8A" points="564.381,690.648 564.381,662.108 539.664,647.838 539.664,676.378 		"/>
	</g>
	<g>
		<polygon fill="#FDB515" points="539.664,676.411 539.664,647.872 564.38,633.601 564.38,662.141 		"/>
	</g>
	<g>
		<polygon fill="#FDB515" points="539.664,733.491 539.664,704.951 564.38,690.681 564.38,719.221 		"/>
	</g>
	<g>
		<polygon fill="#FDB515" points="564.439,633.568 564.439,605.028 589.155,590.758 589.155,619.298 		"/>
	</g>
	<g>
		<polygon fill="#FDC343" points="564.439,662.108 564.439,633.568 589.155,619.298 589.155,647.838 		"/>
	</g>
	<g>
		<polygon fill="#FFFFFF" points="539.664,647.871 539.664,619.331 564.381,605.06 564.381,633.6 		"/>
	</g>
	<g>
		<polygon fill="#FDC343" points="539.664,619.332 539.664,590.792 514.948,576.522 514.948,605.062 		"/>
	</g>
	<g>
		<polygon fill="#FDC343" points="539.664,676.411 539.664,647.872 514.948,633.601 514.948,662.141 		"/>
	</g>
	<g>
		<polygon fill="#FDC343" points="539.664,733.491 539.664,704.951 514.948,690.681 514.948,719.221 		"/>
	</g>
	<g>
		<polygon fill="#FEDA8A" points="539.664,647.871 539.663,619.331 514.947,605.06 514.947,633.6 		"/>
	</g>
	<g>
		<polygon fill="#FDC343" points="564.38,576.488 564.38,547.948 539.664,533.677 539.664,562.217 		"/>
	</g>
	<g>
		<polygon fill="#FDC343" points="564.38,520.148 564.38,491.608 539.664,477.338 539.664,505.878 		"/>
	</g>
	<g>
		<polygon fill="#FDB515" points="564.438,690.648 564.439,662.108 589.155,647.838 589.155,676.378 		"/>
	</g>
	<g>
		<polygon fill="#FDD272" points="564.438,719.188 564.438,690.648 589.155,676.378 589.155,704.918 		"/>
	</g>
</g>
<g>
	<g>
		<polygon fill="#FDC343" points="466.545,596.725 466.545,625.265 491.262,610.995 491.262,582.455 		"/>
	</g>
	<g>
		<polygon fill="#FFFFFF" points="491.262,553.915 491.262,582.455 515.978,568.185 515.978,539.645 		"/>
	</g>
	<g>
		<polygon fill="#FDD272" points="466.546,454.026 466.546,482.566 491.263,468.295 491.263,439.755 		"/>
	</g>
	<g>
		<polygon fill="#FDD272" points="441.83,525.376 441.83,496.836 466.546,482.566 466.546,511.105 		"/>
	</g>
	<g>
		<polygon fill="#FDC343" points="441.829,553.916 441.83,525.376 466.546,511.105 466.546,539.645 		"/>
	</g>
	<g>
		<polygon fill="#FDD272" points="441.829,582.456 441.829,553.916 466.546,539.645 466.546,568.185 		"/>
	</g>
	<g>
		<polygon fill="#FDB515" points="441.829,610.995 441.829,582.456 466.546,568.185 466.545,596.725 		"/>
	</g>
	<g>
		<polygon fill="#FDC343" points="441.829,702.552 441.829,674.012 466.545,659.742 466.545,688.281 		"/>
	</g>
	<g>
		<polygon fill="#FDB515" points="417.113,568.186 417.113,596.726 441.829,582.456 441.829,553.916 		"/>
	</g>
	<g>
		<polygon fill="#FFFFFF" points="417.113,539.646 417.113,568.186 441.829,553.916 441.83,525.376 		"/>
	</g>
	<g>
		<polygon fill="#FDC343" points="417.113,511.106 417.113,539.646 441.83,525.376 441.83,496.836 		"/>
	</g>
	<g>
		<polygon fill="#FFFFFF" points="417.114,482.566 417.113,511.106 441.83,496.836 441.83,468.296 		"/>
	</g>
	<g>
		<polygon fill="#FDB515" points="417.114,454.026 417.114,482.566 441.83,468.296 441.83,439.756 		"/>
	</g>
	<g>
		<g>
			<polygon fill="#FEDA8A" points="392.397,468.555 392.397,440.015 417.114,425.745 417.114,454.285 			"/>
		</g>
	</g>
	<g>
		<polygon fill="#FDD272" points="392.397,553.916 392.397,525.376 417.113,511.106 417.113,539.646 		"/>
	</g>
	<g>
		<polygon fill="#FDB515" points="367.621,596.76 367.621,568.22 392.338,553.95 392.338,582.49 		"/>
	</g>
	<g>
		<polygon fill="#FDB515" points="367.621,710.919 367.621,682.379 392.338,668.109 392.338,696.649 		"/>
	</g>
	<g>
		<polygon fill="#FDC343" points="392.396,639.536 392.396,610.996 417.113,596.726 417.113,625.266 		"/>
	</g>
	<g>
		<polygon fill="#FDC343" points="367.622,653.839 367.622,625.299 342.905,611.029 342.905,639.569 		"/>
	</g>
	<g>
		<polygon fill="#FDC343" points="392.338,553.916 392.338,525.376 367.621,511.105 367.621,539.645 		"/>
	</g>
	<g>
		<polygon fill="#FDD272" points="392.338,469.295 392.338,440.755 367.621,426.485 367.621,455.025 		"/>
	</g>
	<g>
		<polygon fill="#FDD272" points="417.113,511.106 417.112,482.566 392.396,468.296 392.396,496.836 		"/>
	</g>
	<g>
		<polygon fill="#FDB515" points="392.396,668.076 392.396,639.536 417.113,625.266 417.112,653.806 		"/>
	</g>
	<g>
		<polygon fill="#FEDA8A" points="392.396,696.616 392.396,668.076 417.112,653.806 417.112,682.346 		"/>
	</g>
	<g>
		<g>
			<polygon fill="#FDC343" points="368.155,427.002 392.397,440.015 417.114,425.745 392.871,412.732 			"/>
		</g>
	</g>
</g>
<g>
	<circle fill="#FFFFFF" cx="488.595" cy="535.421" r="34.794"/>
</g>
<linearGradient id="SVGID_1_" gradientUnits="userSpaceOnUse" x1="488.9444" y1="552.652" x2="488.9444" y2="624.2745">
	<stop  offset="0" style="stop-color:#FFFFFF"/>
	<stop  offset="1" style="stop-color:#FDC343;stop-opacity:0"/>
</linearGradient>
<rect x="454.5" y="545.261" fill="url(#SVGID_1_)" width="68.889" height="85.211"/>
<g>
	<path fill="#FEDA8A" d="M488.595,557.738c-14.454,0-27.045-5.74-33.816-14.252c3.643,15.32,17.381,26.728,33.816,26.728
		c16.435,0,30.174-11.409,33.817-26.729C515.641,551.998,503.049,557.738,488.595,557.738z"/>
</g>
<g>
	<path fill="#1977F3" d="M523.389,535.421c0-19.216-15.578-34.794-34.794-34.794s-34.794,15.578-34.794,34.794
		c0,1.873,0.19,3.699,0.475,5.492c12.825,2.034,33.366,3.247,46.16,2.573c9.047-0.476,16.999,0.087,22.565-2.864
		C523.111,539.497,523.389,536.573,523.389,535.421z"/>
</g>
<g>
	<path fill="#FFFFFF" d="M523.002,540.621c0.044-0.454,0.116-1.204,0.185-2.01c-0.311-0.203-0.681-0.323-1.08-0.323
		c-1.094,0-1.981,0.886-1.981,1.982c0,0.522,0.206,0.993,0.536,1.347C521.481,541.338,522.264,541.012,523.002,540.621z"/>
	<path fill="#FFFFFF" d="M512.2,518.47c-1.094,0-1.981,0.886-1.981,1.982c0,1.094,0.887,1.982,1.981,1.982s1.982-0.888,1.982-1.982
		C514.181,519.356,513.293,518.47,512.2,518.47z"/>
	<path fill="#FFFFFF" d="M510.219,510.543c0,1.095,0.887,1.982,1.981,1.982c0.724,0,1.352-0.393,1.698-0.974
		c-0.883-0.936-1.816-1.823-2.797-2.656C510.569,509.25,510.219,509.855,510.219,510.543z"/>
	<path fill="#FFFFFF" d="M509.228,515.497c0-1.095-0.888-1.982-1.983-1.982c-1.095,0-1.982,0.887-1.982,1.982
		c0,1.094,0.887,1.982,1.982,1.982C508.34,517.479,509.228,516.591,509.228,515.497z"/>
	<path fill="#FFFFFF" d="M515.171,515.497c0,1.094,0.887,1.982,1.982,1.982c0.391,0,0.754-0.117,1.061-0.313
		c-0.694-1.123-1.452-2.2-2.265-3.233C515.479,514.295,515.171,514.858,515.171,515.497z"/>
	<path fill="#FFFFFF" d="M507.245,507.57c0.546,0,1.04-0.221,1.398-0.578c-1.048-0.74-2.135-1.428-3.263-2.051
		c-0.071,0.204-0.117,0.419-0.117,0.646C505.264,506.683,506.151,507.57,507.245,507.57z"/>
	<path fill="#FFFFFF" d="M502.291,518.47c-1.094,0-1.981,0.886-1.981,1.982c0,1.094,0.887,1.982,1.981,1.982
		s1.982-0.888,1.982-1.982C504.273,519.356,503.385,518.47,502.291,518.47z"/>
	<path fill="#FFFFFF" d="M512.2,538.288c-1.094,0-1.981,0.886-1.981,1.982c0,1.094,0.887,1.982,1.981,1.982s1.982-0.888,1.982-1.982
		C514.181,539.174,513.293,538.288,512.2,538.288z"/>
	<path fill="#FFFFFF" d="M522.107,532.343c0.412,0,0.795-0.126,1.112-0.342c-0.116-1.193-0.292-2.369-0.525-3.523
		c-0.187-0.058-0.381-0.098-0.587-0.098c-1.094,0-1.981,0.887-1.981,1.982C520.127,531.455,521.013,532.343,522.107,532.343z"/>
	<path fill="#FFFFFF" d="M512.2,528.379c-1.094,0-1.981,0.887-1.981,1.982c0,1.094,0.887,1.982,1.981,1.982s1.982-0.888,1.982-1.982
		C514.181,529.266,513.293,528.379,512.2,528.379z"/>
	<path fill="#FFFFFF" d="M507.245,533.333c-1.095,0-1.982,0.887-1.982,1.981c0,1.094,0.887,1.982,1.982,1.982
		c1.094,0,1.983-0.888,1.983-1.982C509.228,534.22,508.34,533.333,507.245,533.333z"/>
	<path fill="#FFFFFF" d="M517.154,533.333c-1.095,0-1.982,0.887-1.982,1.981c0,1.094,0.887,1.982,1.982,1.982
		c1.094,0,1.981-0.888,1.981-1.982C519.135,534.22,518.248,533.333,517.154,533.333z"/>
	<path fill="#FFFFFF" d="M507.245,523.425c-1.095,0-1.982,0.888-1.982,1.982c0,1.095,0.887,1.981,1.982,1.981
		c1.094,0,1.983-0.887,1.983-1.981C509.228,524.312,508.34,523.425,507.245,523.425z"/>
	<path fill="#FFFFFF" d="M517.154,523.425c-1.095,0-1.982,0.888-1.982,1.982c0,1.095,0.887,1.981,1.982,1.981
		c1.094,0,1.981-0.887,1.981-1.981C519.135,524.312,518.248,523.425,517.154,523.425z"/>
	<path fill="#FFFFFF" d="M502.291,538.288c-1.094,0-1.981,0.886-1.981,1.982c0,1.094,0.887,1.982,1.981,1.982
		s1.982-0.888,1.982-1.982C504.273,539.174,503.385,538.288,502.291,538.288z"/>
	<path fill="#FFFFFF" d="M502.291,528.379c-1.094,0-1.981,0.887-1.981,1.982c0,1.094,0.887,1.982,1.981,1.982
		s1.982-0.888,1.982-1.982C504.273,529.266,503.385,528.379,502.291,528.379z"/>
	<path fill="#FFFFFF" d="M520.16,520.783c0.057,0.338,0.201,0.643,0.407,0.9C520.436,521.38,520.298,521.081,520.16,520.783z"/>
	<path fill="#FFFFFF" d="M507.212,543.246c0.017,0,0.034-0.001,0.052-0.001c-0.006,0-0.012-0.002-0.018-0.002
		C507.234,543.242,507.223,543.245,507.212,543.246z"/>
	<path fill="#FFFFFF" d="M492.383,518.47c-1.094,0-1.981,0.886-1.981,1.982c0,1.094,0.887,1.982,1.981,1.982
		c1.094,0,1.982-0.888,1.982-1.982C494.365,519.356,493.476,518.47,492.383,518.47z"/>
	<path fill="#FFFFFF" d="M502.291,512.525c1.094,0,1.982-0.888,1.982-1.982c0-1.094-0.888-1.982-1.982-1.982
		s-1.981,0.887-1.981,1.982C500.31,511.637,501.197,512.525,502.291,512.525z"/>
	<path fill="#FFFFFF" d="M492.383,512.525c1.094,0,1.982-0.888,1.982-1.982c0-1.094-0.888-1.982-1.982-1.982
		c-1.094,0-1.981,0.887-1.981,1.982C490.402,511.637,491.289,512.525,492.383,512.525z"/>
	<path fill="#FFFFFF" d="M489.411,515.497c0-1.095-0.888-1.982-1.983-1.982c-1.095,0-1.982,0.887-1.982,1.982
		c0,1.094,0.887,1.982,1.982,1.982C488.523,517.479,489.411,516.591,489.411,515.497z"/>
	<path fill="#FFFFFF" d="M497.337,517.479c1.094,0,1.981-0.888,1.981-1.982c0-1.095-0.887-1.982-1.981-1.982
		c-1.095,0-1.982,0.887-1.982,1.982C495.355,516.591,496.242,517.479,497.337,517.479z"/>
	<path fill="#FFFFFF" d="M487.429,503.607c-1.095,0-1.982,0.888-1.982,1.982c0,1.095,0.887,1.982,1.982,1.982
		c1.094,0,1.983-0.887,1.983-1.982C489.411,504.494,488.523,503.607,487.429,503.607z"/>
	<path fill="#FFFFFF" d="M497.337,507.57c1.094,0,1.981-0.887,1.981-1.982c0-1.094-0.887-1.982-1.981-1.982
		c-1.095,0-1.982,0.888-1.982,1.982C495.355,506.683,496.242,507.57,497.337,507.57z"/>
	<path fill="#FFFFFF" d="M482.474,518.47c-1.094,0-1.981,0.886-1.981,1.982c0,1.094,0.887,1.982,1.981,1.982
		s1.982-0.888,1.982-1.982C484.456,519.356,483.568,518.47,482.474,518.47z"/>
	<path fill="#FFFFFF" d="M492.383,502.615c0.932,0,1.71-0.647,1.921-1.514c-1.278-0.211-2.577-0.36-3.898-0.427
		C490.428,501.749,491.303,502.615,492.383,502.615z"/>
	<path fill="#FFFFFF" d="M492.383,538.288c-1.094,0-1.981,0.886-1.981,1.982c0,1.094,0.887,1.982,1.981,1.982
		c1.094,0,1.982-0.888,1.982-1.982C494.365,539.174,493.476,538.288,492.383,538.288z"/>
	<path fill="#FFFFFF" d="M492.383,528.379c-1.094,0-1.981,0.887-1.981,1.982c0,1.094,0.887,1.982,1.981,1.982
		c1.094,0,1.982-0.888,1.982-1.982C494.365,529.266,493.476,528.379,492.383,528.379z"/>
	<path fill="#FFFFFF" d="M487.429,533.333c-1.095,0-1.982,0.887-1.982,1.981c0,1.094,0.887,1.982,1.982,1.982
		c1.094,0,1.983-0.888,1.983-1.982C489.411,534.22,488.523,533.333,487.429,533.333z"/>
	<path fill="#FFFFFF" d="M497.337,533.333c-1.095,0-1.982,0.887-1.982,1.981c0,1.094,0.887,1.982,1.982,1.982
		c1.094,0,1.981-0.888,1.981-1.982C499.318,534.22,498.431,533.333,497.337,533.333z"/>
	<path fill="#FFFFFF" d="M487.429,523.425c-1.095,0-1.982,0.888-1.982,1.982c0,1.095,0.887,1.981,1.982,1.981
		c1.094,0,1.983-0.887,1.983-1.981C489.411,524.312,488.523,523.425,487.429,523.425z"/>
	<path fill="#FFFFFF" d="M497.337,523.425c-1.095,0-1.982,0.888-1.982,1.982c0,1.095,0.887,1.981,1.982,1.981
		c1.094,0,1.981-0.887,1.981-1.981C499.318,524.312,498.431,523.425,497.337,523.425z"/>
	<path fill="#FFFFFF" d="M482.474,538.288c-1.094,0-1.981,0.886-1.981,1.982c0,1.094,0.887,1.982,1.981,1.982
		s1.982-0.888,1.982-1.982C484.456,539.174,483.568,538.288,482.474,538.288z"/>
	<path fill="#FFFFFF" d="M482.474,528.379c-1.094,0-1.981,0.887-1.981,1.982c0,1.094,0.887,1.982,1.981,1.982
		s1.982-0.888,1.982-1.982C484.456,529.266,483.568,528.379,482.474,528.379z"/>
	<path fill="#FFFFFF" d="M486.313,543.587c0.772,0.02,1.531,0.034,2.288,0.047c-0.329-0.243-0.732-0.392-1.173-0.392
		C487.015,543.242,486.631,543.37,486.313,543.587z"/>
	<path fill="#FFFFFF" d="M496.167,543.632c0.771-0.016,1.526-0.035,2.258-0.062c-0.312-0.206-0.686-0.328-1.088-0.328
		C496.897,543.242,496.495,543.39,496.167,543.632z"/>
	<path fill="#FFFFFF" d="M472.566,518.47c-1.094,0-1.981,0.886-1.981,1.982c0,1.094,0.887,1.982,1.981,1.982
		c1.094,0,1.982-0.888,1.982-1.982C474.548,519.356,473.66,518.47,472.566,518.47z"/>
	<path fill="#FFFFFF" d="M482.474,512.525c1.094,0,1.982-0.888,1.982-1.982c0-1.094-0.888-1.982-1.982-1.982
		s-1.981,0.887-1.981,1.982C480.493,511.637,481.38,512.525,482.474,512.525z"/>
	<path fill="#FFFFFF" d="M472.566,512.525c1.094,0,1.982-0.888,1.982-1.982c0-1.094-0.888-1.982-1.982-1.982
		c-1.094,0-1.981,0.887-1.981,1.982C470.585,511.637,471.472,512.525,472.566,512.525z"/>
	<path fill="#FFFFFF" d="M469.595,515.497c0-1.095-0.888-1.982-1.983-1.982s-1.982,0.887-1.982,1.982
		c0,1.094,0.887,1.982,1.982,1.982S469.595,516.591,469.595,515.497z"/>
	<path fill="#FFFFFF" d="M477.52,517.479c1.094,0,1.981-0.888,1.981-1.982c0-1.095-0.887-1.982-1.981-1.982
		c-1.095,0-1.982,0.887-1.982,1.982C475.538,516.591,476.425,517.479,477.52,517.479z"/>
	<path fill="#FFFFFF" d="M469.423,506.389c-0.566,0.375-1.124,0.76-1.666,1.167C468.502,507.5,469.134,507.041,469.423,506.389z"/>
	<path fill="#FFFFFF" d="M477.52,507.57c1.094,0,1.981-0.887,1.981-1.982c0-1.094-0.887-1.982-1.981-1.982
		c-1.095,0-1.982,0.888-1.982,1.982C475.538,506.683,476.425,507.57,477.52,507.57z"/>
	<path fill="#FFFFFF" d="M462.657,518.47c-1.094,0-1.981,0.886-1.981,1.982c0,1.094,0.887,1.982,1.981,1.982
		c1.094,0,1.982-0.888,1.982-1.982C464.639,519.356,463.751,518.47,462.657,518.47z"/>
	<path fill="#FFFFFF" d="M482.474,502.615c1.009,0,1.833-0.757,1.957-1.732c-1.26,0.15-2.498,0.368-3.713,0.65
		C481.047,502.173,481.706,502.615,482.474,502.615z"/>
	<path fill="#FFFFFF" d="M472.566,538.288c-1.094,0-1.981,0.886-1.981,1.982c0,1.094,0.887,1.982,1.981,1.982
		c1.094,0,1.982-0.888,1.982-1.982C474.548,539.174,473.66,538.288,472.566,538.288z"/>
	<path fill="#FFFFFF" d="M472.566,528.379c-1.094,0-1.981,0.887-1.981,1.982c0,1.094,0.887,1.982,1.981,1.982
		c1.094,0,1.982-0.888,1.982-1.982C474.548,529.266,473.66,528.379,472.566,528.379z"/>
	<path fill="#FFFFFF" d="M467.612,533.333c-1.094,0-1.982,0.887-1.982,1.981c0,1.094,0.887,1.982,1.982,1.982
		s1.983-0.888,1.983-1.982C469.595,534.22,468.706,533.333,467.612,533.333z"/>
	<path fill="#FFFFFF" d="M477.52,533.333c-1.095,0-1.982,0.887-1.982,1.981c0,1.094,0.887,1.982,1.982,1.982
		c1.094,0,1.981-0.888,1.981-1.982C479.501,534.22,478.614,533.333,477.52,533.333z"/>
	<path fill="#FFFFFF" d="M467.612,523.425c-1.094,0-1.982,0.888-1.982,1.982c0,1.095,0.887,1.981,1.982,1.981
		s1.983-0.887,1.983-1.981C469.595,524.312,468.706,523.425,467.612,523.425z"/>
	<path fill="#FFFFFF" d="M477.52,523.425c-1.095,0-1.982,0.888-1.982,1.982c0,1.095,0.887,1.981,1.982,1.981
		c1.094,0,1.981-0.887,1.981-1.981C479.501,524.312,478.614,523.425,477.52,523.425z"/>
	<path fill="#FFFFFF" d="M464.639,540.27c0-1.095-0.888-1.982-1.982-1.982c-1.094,0-1.981,0.886-1.981,1.982
		c0,0.666,0.332,1.252,0.836,1.612c0.632,0.073,1.274,0.142,1.922,0.211C464.142,541.79,464.639,541.088,464.639,540.27z"/>
	<path fill="#FFFFFF" d="M464.639,510.543c0-0.107-0.015-0.21-0.031-0.312c-0.76,0.724-1.488,1.481-2.18,2.271
		c0.076,0.009,0.151,0.023,0.229,0.023C463.751,512.525,464.639,511.637,464.639,510.543z"/>
	<path fill="#FFFFFF" d="M459.295,516.667c0.042-0.057,0.078-0.117,0.114-0.178C459.37,516.548,459.333,516.608,459.295,516.667z"/>
	<path fill="#FFFFFF" d="M462.657,532.343c1.094,0,1.982-0.888,1.982-1.982c0-1.095-0.888-1.982-1.982-1.982
		c-1.094,0-1.981,0.887-1.981,1.982C460.676,531.455,461.563,532.343,462.657,532.343z"/>
	<path fill="#FFFFFF" d="M454.731,530.361c0-0.427-0.138-0.82-0.367-1.143c-0.159,0.885-0.295,1.779-0.386,2.687
		C454.433,531.542,454.731,530.988,454.731,530.361z"/>
	<path fill="#FFFFFF" d="M457.703,533.333c-1.095,0-1.982,0.887-1.982,1.981c0,1.094,0.887,1.982,1.982,1.982
		c1.094,0,1.981-0.888,1.981-1.982C459.684,534.22,458.797,533.333,457.703,533.333z"/>
	<path fill="#FFFFFF" d="M457.703,523.425c-1.095,0-1.982,0.888-1.982,1.982c0,1.095,0.887,1.981,1.982,1.981
		c1.094,0,1.981-0.887,1.981-1.981C459.684,524.312,458.797,523.425,457.703,523.425z"/>
	<path fill="#FFFFFF" d="M453.991,538.737c0.078,0.731,0.171,1.457,0.285,2.176c0.104,0.017,0.219,0.032,0.324,0.048
		c0.081-0.216,0.131-0.447,0.131-0.691C454.731,539.647,454.439,539.1,453.991,538.737z"/>
</g>
<linearGradient id="SVGID_2_" gradientUnits="userSpaceOnUse" x1="488.9444" y1="659.2958" x2="488.9444" y2="778.2664">
	<stop  offset="0" style="stop-color:#FFFFFF"/>
	<stop  offset="1" style="stop-color:#FDC343;stop-opacity:0"/>
</linearGradient>
<rect x="454.5" y="684.739" fill="url(#SVGID_2_)" width="68.889" height="141.542"/>
<g>
	<circle fill="#FEDA8A" cx="488.595" cy="677.774" r="34.794"/>
</g>
<g>
	<path fill="#FEF0D0" d="M454.5,670.817c3.223,10.59,17.262,18.561,34.095,18.561c16.834,0,30.872-7.971,34.096-18.561
		c-3.223-15.882-17.262-27.837-34.096-27.837C471.762,642.98,457.723,654.935,454.5,670.817z"/>
</g>
<g>
	<path fill="#FFFFFF" d="M491.028,661.161c-55.982,0-111.965-12.303-154.584-36.909c-41.574-24.003-64.471-56.006-64.471-90.115
		c0-34.108,22.896-66.111,64.47-90.114c85.237-49.213,223.929-49.213,309.167,0c41.574,24.003,64.47,56.007,64.47,90.116
		c0,34.108-22.896,66.111-64.47,90.113l0,0C602.992,648.858,547.01,661.161,491.028,661.161z M491.026,410.069
		c-55.439,0-110.878,12.184-153.083,36.551c-40.607,23.444-62.97,54.525-62.97,87.517c0,32.992,22.364,64.073,62.971,87.518
		c84.411,48.734,221.757,48.734,306.167,0c40.606-23.444,62.969-54.524,62.97-87.516c0-32.992-22.363-64.074-62.97-87.519
		C601.905,422.252,546.466,410.069,491.026,410.069z"/>
</g>
<g>
	<path fill="#FFFFFF" d="M491.028,545.1c-55.982,0-111.965-12.303-154.584-36.909c-41.575-24.003-64.471-56.007-64.471-90.116
		c0-34.108,22.896-66.111,64.47-90.114c85.238-49.211,223.93-49.212,309.167,0.001c41.574,24.003,64.47,56.006,64.47,90.115
		c0,34.108-22.896,66.111-64.47,90.114l-0.75-1.299l0.75,1.299C602.992,532.797,547.01,545.1,491.028,545.1z M491.025,294.008
		c-55.439,0-110.877,12.184-153.083,36.55c-40.606,23.444-62.969,54.525-62.97,87.517c0,32.992,22.363,64.073,62.971,87.519
		c84.411,48.734,221.757,48.734,306.167,0c40.607-23.444,62.97-54.525,62.97-87.517c0-32.992-22.363-64.073-62.97-87.518
		C601.905,306.192,546.465,294.008,491.025,294.008z"/>
</g>
<g>
	<g>
		<path fill="#FFFFFF" d="M603.266,691.858c-0.48,0-0.96-0.2-1.3-0.54c-0.34-0.34-0.54-0.82-0.54-1.3c0-0.49,0.2-0.96,0.54-1.3
			c0.43-0.431,1.07-0.63,1.66-0.511c0.12,0.03,0.24,0.061,0.35,0.11c0.11,0.04,0.22,0.1,0.32,0.17c0.1,0.061,0.19,0.14,0.28,0.23
			c0.34,0.34,0.54,0.81,0.54,1.3c0,0.479-0.2,0.96-0.54,1.3C604.226,691.658,603.756,691.858,603.266,691.858z"/>
	</g>
	<g>
		<path fill="#FFFFFF" d="M745.756,774.548c-0.88-0.511-1.18-1.631-0.67-2.511l0,0c0.51-0.88,1.64-1.189,2.52-0.68l0,0
			c0.88,0.51,1.18,1.64,0.67,2.52l0,0c-0.34,0.591-0.96,0.921-1.6,0.921l0,0C746.366,774.798,746.046,774.718,745.756,774.548z
			 M737.786,769.948c-0.88-0.51-1.18-1.64-0.67-2.52l0,0c0.51-0.88,1.64-1.181,2.52-0.67l0,0c0.88,0.51,1.18,1.63,0.67,2.51l0,0
			c-0.34,0.6-0.96,0.92-1.59,0.92l0,0C738.396,770.188,738.086,770.118,737.786,769.948z M729.826,765.338
			c-0.88-0.511-1.18-1.641-0.67-2.521l0,0c0.51-0.88,1.63-1.18,2.51-0.67l0,0c0.88,0.51,1.19,1.64,0.68,2.52l0,0
			c-0.35,0.591-0.97,0.921-1.6,0.921l0,0C730.426,765.588,730.116,765.508,729.826,765.338z M721.856,760.728
			c-0.88-0.51-1.18-1.64-0.67-2.521l0,0c0.51-0.88,1.64-1.18,2.52-0.67l0,0c0.88,0.511,1.18,1.641,0.67,2.521l0,0
			c-0.34,0.59-0.96,0.92-1.6,0.92l0,0C722.466,760.978,722.146,760.898,721.856,760.728z M713.886,756.118
			c-0.88-0.51-1.18-1.63-0.67-2.52l0,0c0.51-0.88,1.64-1.181,2.52-0.67l0,0c0.88,0.51,1.18,1.64,0.67,2.52l0,0
			c-0.34,0.59-0.96,0.92-1.6,0.92l0,0C714.496,756.368,714.176,756.288,713.886,756.118z M705.926,751.518
			c-0.89-0.521-1.19-1.641-0.68-2.521l0,0c0.51-0.88,1.64-1.18,2.52-0.67l0,0c0.88,0.5,1.18,1.63,0.67,2.511l0,0
			c-0.34,0.59-0.96,0.92-1.59,0.92l0,0C706.526,751.758,706.216,751.678,705.926,751.518z M697.956,746.908
			c-0.88-0.51-1.18-1.64-0.67-2.52l0,0c0.51-0.88,1.63-1.181,2.51-0.67l0,0c0.89,0.51,1.19,1.63,0.68,2.51l0,0
			c-0.35,0.59-0.96,0.93-1.6,0.92l0,0C698.565,747.148,698.246,747.078,697.956,746.908z M689.986,742.298
			c-0.88-0.511-1.18-1.641-0.67-2.521l0,0c0.51-0.88,1.64-1.18,2.52-0.67l0,0c0.88,0.51,1.18,1.63,0.67,2.52l0,0
			c-0.34,0.591-0.96,0.921-1.6,0.921l0,0C690.596,742.548,690.276,742.468,689.986,742.298z M682.016,737.688
			c-0.88-0.51-1.18-1.64-0.67-2.521l0,0c0.51-0.88,1.64-1.18,2.52-0.67l0,0c0.88,0.511,1.18,1.641,0.67,2.521l0,0
			c-0.34,0.59-0.96,0.92-1.6,0.92l0,0C682.626,737.938,682.305,737.858,682.016,737.688z M674.055,733.078
			c-0.88-0.51-1.19-1.63-0.68-2.51l0,0c0.51-0.88,1.64-1.19,2.52-0.68l0,0c0.88,0.51,1.18,1.64,0.68,2.52l0,0
			c-0.35,0.59-0.96,0.92-1.6,0.92l0,0C674.666,733.328,674.346,733.248,674.055,733.078z M666.086,728.478
			c-0.88-0.51-1.18-1.64-0.67-2.521l0,0c0.51-0.88,1.63-1.18,2.52-0.68l0,0c0.88,0.51,1.18,1.64,0.67,2.521l0,0
			c-0.34,0.59-0.96,0.92-1.6,0.92l0,0C666.696,728.718,666.376,728.638,666.086,728.478z M658.116,723.868
			c-0.88-0.51-1.18-1.64-0.67-2.52l0,0c0.51-0.88,1.64-1.181,2.52-0.67l0,0c0.88,0.51,1.18,1.63,0.67,2.52l0,0
			c-0.34,0.59-0.96,0.91-1.6,0.91l0,0C658.726,724.108,658.406,724.038,658.116,723.868z M650.146,719.258
			c-0.88-0.511-1.18-1.641-0.67-2.521l0,0c0.51-0.88,1.64-1.18,2.52-0.67l0,0c0.88,0.51,1.18,1.64,0.67,2.521l0,0
			c-0.34,0.59-0.96,0.92-1.6,0.92l0,0C650.756,719.508,650.436,719.428,650.146,719.258z M642.186,714.648
			c-0.88-0.51-1.19-1.63-0.67-2.521l0,0c0.51-0.88,1.63-1.18,2.51-0.67l0,0c0.88,0.511,1.18,1.641,0.68,2.521l0,0
			c-0.35,0.59-0.96,0.92-1.6,0.92l0,0C642.796,714.898,642.476,714.818,642.186,714.648z M634.216,710.038
			c-0.88-0.5-1.18-1.63-0.67-2.51l0,0c0.51-0.88,1.63-1.189,2.52-0.68l0,0c0.88,0.51,1.18,1.64,0.67,2.52l0,0
			c-0.34,0.59-0.96,0.92-1.6,0.92l0,0C634.826,710.288,634.506,710.208,634.216,710.038z M626.246,705.428
			c-0.88-0.5-1.18-1.63-0.67-2.511l0,0c0.51-0.88,1.64-1.18,2.52-0.67l0,0c0.88,0.511,1.18,1.63,0.67,2.511l0,0
			c-0.34,0.59-0.96,0.92-1.59,0.92l0,0C626.856,705.678,626.536,705.598,626.246,705.428z M618.286,700.828
			c-0.88-0.51-1.19-1.64-0.68-2.52l0,0c0.51-0.88,1.64-1.181,2.52-0.67l0,0c0.88,0.51,1.18,1.63,0.67,2.52l0,0
			c-0.34,0.59-0.96,0.92-1.59,0.92l0,0C618.886,701.078,618.576,700.998,618.286,700.828z M610.315,696.218
			c-0.88-0.511-1.18-1.641-0.67-2.521l0,0c0.51-0.88,1.63-1.18,2.51-0.67l0,0c0.88,0.51,1.18,1.64,0.68,2.521l0,0
			c-0.35,0.59-0.96,0.92-1.6,0.92l0,0C610.926,696.468,610.606,696.388,610.315,696.218z"/>
	</g>
	<g>
		<path fill="#FFFFFF" d="M754.646,779.408c-0.12,0-0.24-0.01-0.36-0.03c-0.11-0.029-0.23-0.06-0.34-0.109
			c-0.11-0.05-0.22-0.101-0.32-0.17c-0.1-0.07-0.19-0.141-0.28-0.23c-0.34-0.34-0.54-0.819-0.54-1.3c0-0.12,0.01-0.24,0.04-0.36
			c0.02-0.119,0.05-0.229,0.1-0.35c0.05-0.11,0.1-0.21,0.17-0.31c0.07-0.11,0.15-0.2,0.23-0.28c0.09-0.09,0.18-0.17,0.28-0.23
			c0.1-0.069,0.21-0.13,0.32-0.17c0.11-0.05,0.23-0.09,0.34-0.109c0.24-0.051,0.48-0.051,0.72,0c0.12,0.02,0.24,0.06,0.35,0.109
			c0.11,0.04,0.22,0.101,0.32,0.17c0.1,0.061,0.19,0.141,0.28,0.23c0.08,0.08,0.16,0.17,0.22,0.28c0.07,0.1,0.13,0.199,0.17,0.31
			c0.05,0.12,0.09,0.23,0.11,0.35c0.02,0.12,0.03,0.24,0.03,0.36c0,0.48-0.19,0.96-0.54,1.3
			C755.606,779.218,755.136,779.408,754.646,779.408z"/>
	</g>
</g>
<linearGradient id="SVGID_3_" gradientUnits="userSpaceOnUse" x1="488.9444" y1="386.1733" x2="488.9444" y2="457.7958">
	<stop  offset="0" style="stop-color:#FFFFFF"/>
	<stop  offset="1" style="stop-color:#FDC343;stop-opacity:0"/>
</linearGradient>
<rect x="454.5" y="391.341" fill="url(#SVGID_3_)" width="68.889" height="85.211"/>
<g>
	<circle fill="#1977F3" cx="488.595" cy="385.416" r="34.794"/>
</g>
<g>
	<path fill="#134FA9" d="M488.595,408.261c-14.454,0-27.045-5.74-33.816-14.252c3.643,15.32,17.381,26.728,33.816,26.728
		c16.435,0,30.174-11.409,33.817-26.729C515.64,402.522,503.049,408.261,488.595,408.261z"/>
</g>
<g>
	<g>
		<path fill="#FFFFFF" d="M714.886,305.208c-0.12,0-0.24-0.01-0.36-0.04c-0.11-0.02-0.23-0.05-0.34-0.1s-0.22-0.1-0.32-0.17
			c-0.1-0.07-0.19-0.15-0.28-0.23c-0.08-0.079-0.16-0.18-0.23-0.279c-0.07-0.101-0.12-0.21-0.17-0.32
			c-0.04-0.11-0.08-0.229-0.1-0.34c-0.03-0.12-0.04-0.24-0.04-0.36s0.01-0.24,0.04-0.359c0.02-0.12,0.06-0.24,0.1-0.351
			c0.05-0.109,0.1-0.21,0.17-0.319c0.07-0.101,0.15-0.19,0.23-0.28c0.09-0.08,0.18-0.16,0.28-0.22c0.1-0.07,0.21-0.131,0.32-0.171
			c0.11-0.05,0.23-0.09,0.34-0.109c0.6-0.12,1.24,0.08,1.67,0.5c0.08,0.09,0.16,0.18,0.22,0.28c0.07,0.109,0.13,0.21,0.17,0.319
			c0.05,0.11,0.09,0.23,0.11,0.351c0.02,0.119,0.03,0.239,0.03,0.359s-0.01,0.24-0.03,0.36c-0.02,0.11-0.06,0.229-0.11,0.34
			c-0.04,0.11-0.1,0.22-0.17,0.32c-0.06,0.1-0.14,0.2-0.22,0.279c-0.09,0.08-0.18,0.16-0.28,0.23s-0.21,0.12-0.32,0.17
			c-0.11,0.04-0.23,0.08-0.35,0.1C715.126,305.198,715.006,305.208,714.886,305.208z"/>
	</g>
	<g>
		<path fill="#FFFFFF" d="M590.076,374.898c-0.5-0.88-0.2-2.01,0.69-2.51l0,0c0.88-0.511,2.01-0.2,2.51,0.68l0,0
			c0.51,0.88,0.2,2.01-0.68,2.51l0,0c-0.29,0.17-0.6,0.25-0.91,0.25l0,0C591.046,375.828,590.416,375.498,590.076,374.898z
			 M598.296,370.198c-0.51-0.89-0.2-2.01,0.68-2.52l0,0c0.88-0.511,2.01-0.2,2.52,0.68l0,0c0.5,0.89,0.2,2.01-0.69,2.52l0,0
			c-0.29,0.16-0.6,0.24-0.91,0.24l0,0C599.256,371.118,598.636,370.788,598.296,370.198z M606.506,365.488
			c-0.5-0.89-0.2-2.01,0.68-2.52l0,0c0.89-0.5,2.01-0.2,2.52,0.68l0,0c0.51,0.89,0.2,2.01-0.68,2.52l0,0
			c-0.29,0.16-0.61,0.24-0.92,0.24l0,0C607.466,366.408,606.846,366.078,606.506,365.488z M614.726,360.778
			c-0.51-0.88-0.2-2.01,0.68-2.52l0,0c0.88-0.5,2.01-0.2,2.51,0.689l0,0c0.51,0.88,0.2,2-0.68,2.51l0,0
			c-0.29,0.17-0.6,0.25-0.91,0.25l0,0C615.686,361.708,615.065,361.368,614.726,360.778z M622.936,356.068
			c-0.5-0.88-0.2-2.01,0.68-2.51l0,0c0.89-0.51,2.01-0.2,2.52,0.68l0,0c0.5,0.88,0.2,2.01-0.69,2.51l0,0
			c-0.28,0.17-0.6,0.25-0.91,0.25l0,0C623.896,356.998,623.276,356.658,622.936,356.068z M631.156,351.358
			c-0.51-0.88-0.21-2.01,0.68-2.51l0,0c0.88-0.51,2.01-0.2,2.51,0.68l0,0c0.51,0.88,0.2,2.01-0.68,2.51l0,0
			c-0.29,0.17-0.61,0.25-0.92,0.25l0,0C632.106,352.288,631.486,351.958,631.156,351.358z M639.366,346.658
			c-0.51-0.89-0.2-2.01,0.68-2.52l0,0c0.88-0.511,2.01-0.2,2.52,0.68l0,0c0.5,0.89,0.19,2.01-0.69,2.521l0,0
			c-0.29,0.159-0.6,0.239-0.91,0.239l0,0C640.326,347.578,639.706,347.248,639.366,346.658z M647.576,341.948
			c-0.5-0.89-0.2-2.01,0.69-2.52l0,0c0.88-0.5,2-0.2,2.51,0.689l0,0c0.51,0.88,0.2,2-0.68,2.51l0,0c-0.29,0.16-0.61,0.24-0.92,0.24
			l0,0C648.536,342.868,647.916,342.538,647.576,341.948z M655.796,337.238c-0.51-0.88-0.2-2.01,0.68-2.52l0,0
			c0.88-0.5,2.01-0.2,2.51,0.689l0,0c0.51,0.88,0.2,2-0.68,2.51l0,0c-0.29,0.171-0.6,0.25-0.91,0.25l0,0
			C656.756,338.167,656.136,337.828,655.796,337.238z M664.006,332.528c-0.51-0.88-0.2-2.01,0.68-2.51l0,0
			c0.89-0.51,2.01-0.2,2.52,0.68l0,0c0.5,0.88,0.2,2.01-0.69,2.51l0,0c-0.28,0.17-0.6,0.25-0.91,0.25l0,0
			C664.966,333.458,664.346,333.118,664.006,332.528z M672.216,327.818c-0.5-0.88-0.2-2,0.69-2.51l0,0c0.88-0.51,2-0.2,2.51,0.68
			l0,0c0.51,0.88,0.2,2.01-0.68,2.521l0,0c-0.29,0.159-0.61,0.239-0.92,0.239l0,0C673.176,328.748,672.565,328.417,672.216,327.818z
			 M680.436,323.118c-0.51-0.89-0.2-2.01,0.68-2.52l0,0c0.88-0.51,2.01-0.2,2.51,0.68l0,0c0.51,0.89,0.21,2.01-0.68,2.521l0,0
			c-0.29,0.159-0.6,0.239-0.91,0.239l0,0C681.396,324.038,680.776,323.708,680.436,323.118z M688.646,318.408
			c-0.5-0.88-0.2-2.01,0.68-2.52l0,0c0.89-0.5,2.01-0.2,2.52,0.68l0,0c0.5,0.89,0.2,2.01-0.68,2.521l0,0
			c-0.29,0.17-0.61,0.239-0.92,0.239l0,0C689.606,319.328,688.986,318.998,688.646,318.408z M696.866,313.698
			c-0.51-0.88-0.2-2.01,0.68-2.52l0,0c0.88-0.5,2.01-0.2,2.51,0.689l0,0c0.51,0.88,0.2,2.01-0.68,2.51l0,0
			c-0.29,0.171-0.6,0.25-0.92,0.25l0,0C697.826,314.627,697.206,314.288,696.866,313.698z M705.076,308.988
			c-0.51-0.88-0.2-2.01,0.68-2.51l0,0c0.88-0.51,2.01-0.2,2.52,0.68l0,0c0.5,0.88,0.2,2.01-0.68,2.51l0,0
			c-0.29,0.171-0.61,0.25-0.92,0.25l0,0C706.036,309.917,705.416,309.588,705.076,308.988z"/>
	</g>
	<g>
		<path fill="#FFFFFF" d="M583.466,380.538c-0.49,0-0.96-0.199-1.3-0.54c-0.35-0.35-0.54-0.819-0.54-1.31c0-0.48,0.19-0.95,0.54-1.3
			c0.08-0.08,0.17-0.16,0.28-0.23c0.1-0.06,0.2-0.12,0.31-0.17c0.11-0.04,0.23-0.08,0.35-0.1c0.6-0.12,1.24,0.069,1.66,0.5
			c0.34,0.34,0.54,0.819,0.54,1.3c0,0.49-0.2,0.96-0.54,1.31C584.426,380.338,583.956,380.538,583.466,380.538z"/>
	</g>
</g>
<g>
	<g>
		<g>
			<g>
				<g>
					<polygon fill="#FDB515" points="150.142,457.181 111.866,435.082 111.866,421.742 150.142,443.84 					"/>
					<path fill="#FFFFFF" d="M150.142,458.68c-0.259,0-0.518-0.067-0.75-0.201l-38.276-22.099c-0.464-0.268-0.75-0.763-0.75-1.299
						v-13.34c0-0.536,0.286-1.031,0.75-1.299c0.464-0.268,1.036-0.268,1.5,0l38.276,22.099c0.464,0.268,0.75,0.763,0.75,1.299v13.34
						c0,0.536-0.286,1.031-0.75,1.299C150.66,458.613,150.401,458.68,150.142,458.68z M113.366,434.215l35.276,20.367v-9.876
						l-35.276-20.367V434.215z"/>
				</g>
				<g>
					<polygon fill="#FDB515" points="150.142,457.181 188.417,435.082 188.417,421.742 150.142,443.84 					"/>
					<path fill="#FFFFFF" d="M150.142,458.68c-0.259,0-0.518-0.067-0.75-0.201c-0.464-0.268-0.75-0.763-0.75-1.299v-13.34
						c0-0.536,0.286-1.031,0.75-1.299l38.276-22.099c0.464-0.268,1.036-0.268,1.5,0c0.464,0.268,0.75,0.763,0.75,1.299v13.34
						c0,0.536-0.286,1.031-0.75,1.299l-38.276,22.099C150.66,458.613,150.401,458.68,150.142,458.68z M151.642,444.707v9.876
						l35.276-20.367v-9.876L151.642,444.707z"/>
				</g>
				<g>
					<polygon fill="#FDB515" points="111.864,421.74 150.139,399.642 188.417,421.742 150.142,443.84 					"/>
					<path fill="#FFFFFF" d="M150.142,445.34c-0.259,0-0.518-0.067-0.75-0.201l-38.278-22.101c-0.464-0.268-0.75-0.763-0.75-1.299
						s0.286-1.031,0.75-1.299l38.276-22.098c0.464-0.268,1.036-0.268,1.5,0l38.278,22.1c0.464,0.268,0.75,0.763,0.75,1.299
						s-0.286,1.031-0.75,1.299l-38.276,22.099C150.66,445.273,150.401,445.34,150.142,445.34z M114.864,421.74l35.278,20.368
						l35.276-20.366l-35.278-20.367L114.864,421.74z"/>
				</g>
			</g>
		</g>
	</g>
	<g>
		<g>
			<g>
				<g>
					<polygon fill="#FDB515" points="150.142,434.298 111.866,412.199 111.866,398.859 150.142,420.958 					"/>
					<path fill="#FFFFFF" d="M150.142,435.797c-0.259,0-0.518-0.067-0.75-0.201l-38.276-22.098c-0.464-0.268-0.75-0.763-0.75-1.299
						v-13.341c0-0.536,0.286-1.031,0.75-1.299c0.464-0.268,1.036-0.268,1.5,0l38.276,22.099c0.464,0.268,0.75,0.763,0.75,1.299
						v13.34c0,0.536-0.286,1.031-0.75,1.299C150.66,435.73,150.401,435.797,150.142,435.797z M113.366,411.333l35.276,20.366v-9.876
						l-35.276-20.367V411.333z"/>
				</g>
				<g>
					<polygon fill="#FDB515" points="150.142,434.298 188.417,412.199 188.417,398.859 150.142,420.958 					"/>
					<path fill="#FFFFFF" d="M150.142,435.797c-0.259,0-0.518-0.067-0.75-0.201c-0.464-0.268-0.75-0.763-0.75-1.299v-13.34
						c0-0.536,0.286-1.031,0.75-1.299l38.276-22.099c0.464-0.268,1.036-0.268,1.5,0c0.464,0.268,0.75,0.763,0.75,1.299V412.2
						c0,0.536-0.286,1.031-0.75,1.299l-38.276,22.098C150.66,435.73,150.401,435.797,150.142,435.797z M151.642,421.824v9.876
						l35.276-20.366v-9.877L151.642,421.824z"/>
				</g>
				<g>
					<polygon fill="#FDB515" points="111.864,398.857 150.139,376.759 188.417,398.859 150.142,420.958 					"/>
					<path fill="#FFFFFF" d="M150.142,422.458c-0.259,0-0.518-0.067-0.75-0.201l-38.278-22.101c-0.464-0.268-0.75-0.763-0.75-1.299
						s0.286-1.031,0.75-1.299l38.276-22.098c0.464-0.268,1.036-0.268,1.5,0l38.278,22.1c0.464,0.268,0.75,0.763,0.75,1.299
						s-0.286,1.031-0.75,1.299l-38.276,22.099C150.66,422.39,150.401,422.458,150.142,422.458z M114.864,398.857l35.278,20.368
						l35.276-20.366l-35.278-20.367L114.864,398.857z"/>
				</g>
			</g>
		</g>
	</g>
	<g>
		<g>
			<g>
				<g>
					<polygon fill="#FDB515" points="150.142,411.415 111.866,389.317 111.866,375.976 150.142,398.075 					"/>
					<path fill="#FFFFFF" d="M150.142,412.916c-0.259,0-0.518-0.067-0.75-0.201l-38.276-22.099c-0.464-0.268-0.75-0.763-0.75-1.299
						v-13.341c0-0.536,0.286-1.031,0.75-1.299c0.464-0.268,1.036-0.268,1.5,0l38.276,22.099c0.464,0.268,0.75,0.763,0.75,1.299
						v13.341c0,0.536-0.286,1.031-0.75,1.299C150.66,412.848,150.401,412.916,150.142,412.916z M113.366,388.451l35.276,20.367
						v-9.877l-35.276-20.367V388.451z"/>
				</g>
				<g>
					<polygon fill="#FDB515" points="150.142,411.415 188.417,389.317 188.417,375.976 150.142,398.075 					"/>
					<path fill="#FFFFFF" d="M150.142,412.916c-0.259,0-0.518-0.067-0.75-0.201c-0.464-0.268-0.75-0.763-0.75-1.299v-13.341
						c0-0.536,0.286-1.031,0.75-1.299l38.276-22.099c0.464-0.268,1.036-0.268,1.5,0c0.464,0.268,0.75,0.763,0.75,1.299v13.341
						c0,0.536-0.286,1.031-0.75,1.299l-38.276,22.099C150.66,412.848,150.401,412.916,150.142,412.916z M151.642,398.941v9.877
						l35.276-20.367v-9.877L151.642,398.941z"/>
				</g>
				<g>
					<polygon fill="#FDB515" points="111.864,375.975 150.139,353.876 188.417,375.976 150.142,398.075 					"/>
					<path fill="#FFFFFF" d="M150.142,399.575c-0.259,0-0.518-0.067-0.75-0.201l-38.278-22.1c-0.464-0.268-0.75-0.763-0.75-1.299
						s0.286-1.031,0.75-1.299l38.276-22.099c0.464-0.268,1.036-0.268,1.5,0l38.278,22.1c0.464,0.268,0.75,0.763,0.75,1.299
						s-0.286,1.031-0.75,1.299l-38.276,22.099C150.66,399.507,150.401,399.575,150.142,399.575z M114.864,375.975l35.278,20.367
						l35.276-20.366l-35.278-20.367L114.864,375.975z"/>
				</g>
			</g>
		</g>
	</g>
</g>
<g>
	<g>
		<path fill="#FFFFFF" d="M188.416,448.208c-0.12,0-0.24-0.01-0.36-0.029c-0.12-0.03-0.23-0.061-0.34-0.11
			c-0.12-0.04-0.22-0.1-0.32-0.17c-0.1-0.07-0.2-0.14-0.28-0.23c-0.35-0.34-0.54-0.819-0.54-1.3c0-0.12,0.01-0.24,0.03-0.359
			c0.03-0.12,0.06-0.23,0.11-0.351c0.04-0.109,0.1-0.21,0.17-0.31c0.07-0.101,0.14-0.2,0.23-0.28c0.08-0.09,0.18-0.16,0.28-0.229
			c0.1-0.07,0.2-0.131,0.32-0.171c0.11-0.05,0.22-0.079,0.34-0.109c0.24-0.05,0.48-0.05,0.72,0c0.12,0.03,0.23,0.06,0.35,0.109
			c0.11,0.04,0.21,0.101,0.31,0.171c0.1,0.069,0.2,0.14,0.28,0.229c0.09,0.08,0.17,0.18,0.23,0.28c0.07,0.1,0.13,0.2,0.17,0.31
			c0.05,0.12,0.08,0.23,0.11,0.351c0.02,0.119,0.03,0.239,0.03,0.359s-0.01,0.24-0.03,0.36c-0.03,0.12-0.06,0.229-0.11,0.35
			c-0.04,0.11-0.1,0.21-0.17,0.311c-0.07,0.1-0.14,0.2-0.23,0.279C189.376,448.018,188.896,448.208,188.416,448.208z"/>
	</g>
	<g>
		<path fill="#FFFFFF" d="M327.206,526.048c-0.89-0.49-1.21-1.61-0.71-2.5l0,0c0.49-0.891,1.61-1.21,2.5-0.71l0,0
			c0.89,0.489,1.21,1.619,0.71,2.51l0,0c-0.34,0.6-0.96,0.939-1.61,0.939l0,0C327.796,526.288,327.486,526.208,327.206,526.048z
			 M318.986,521.458c-0.89-0.489-1.21-1.619-0.71-2.51l0,0c0.5-0.88,1.62-1.2,2.51-0.7l0,0c0.88,0.49,1.2,1.61,0.7,2.5l0,0
			c-0.33,0.61-0.96,0.95-1.6,0.95l0,0C319.576,521.698,319.266,521.618,318.986,521.458z M310.766,516.868
			c-0.89-0.5-1.21-1.62-0.71-2.51l0,0c0.5-0.89,1.62-1.2,2.51-0.71l0,0c0.89,0.5,1.2,1.62,0.71,2.51l0,0
			c-0.34,0.601-0.96,0.94-1.61,0.94l0,0C311.356,517.098,311.056,517.028,310.766,516.868z M302.546,512.268
			c-0.88-0.49-1.2-1.61-0.71-2.5l0,0c0.5-0.891,1.63-1.21,2.51-0.71l0,0c0.89,0.5,1.21,1.62,0.71,2.51l0,0
			c-0.33,0.6-0.96,0.94-1.61,0.94l0,0C303.146,512.508,302.836,512.428,302.546,512.268z M294.336,507.678
			c-0.89-0.49-1.21-1.61-0.71-2.5l0,0c0.49-0.891,1.62-1.21,2.51-0.71l0,0c0.88,0.489,1.2,1.609,0.71,2.5l0,0
			c-0.34,0.609-0.97,0.949-1.61,0.949l0,0C294.926,507.917,294.616,507.838,294.336,507.678z M286.116,503.088
			c-0.89-0.5-1.2-1.62-0.71-2.511l0,0c0.5-0.88,1.62-1.2,2.51-0.7l0,0c0.89,0.49,1.21,1.61,0.71,2.5l0,0
			c-0.34,0.61-0.96,0.95-1.61,0.95l0,0C286.716,503.328,286.406,503.248,286.116,503.088z M277.896,498.498
			c-0.88-0.5-1.2-1.62-0.7-2.51l0,0c0.49-0.89,1.61-1.21,2.5-0.71l0,0c0.89,0.5,1.21,1.62,0.71,2.51l0,0
			c-0.34,0.601-0.96,0.94-1.61,0.94l0,0C278.496,498.728,278.186,498.658,277.896,498.498z M269.686,493.908
			c-0.89-0.5-1.21-1.62-0.71-2.51l0,0c0.5-0.89,1.62-1.21,2.51-0.71l0,0c0.88,0.49,1.2,1.62,0.7,2.51l0,0
			c-0.33,0.601-0.96,0.94-1.6,0.94l0,0C270.276,494.138,269.966,494.058,269.686,493.908z M261.466,489.308
			c-0.89-0.49-1.2-1.62-0.71-2.51l0,0c0.5-0.881,1.62-1.2,2.51-0.7l0,0c0.89,0.49,1.21,1.609,0.71,2.5l0,0
			c-0.34,0.609-0.96,0.95-1.61,0.95l0,0C262.056,489.548,261.756,489.468,261.466,489.308z M253.256,484.718
			c-0.89-0.5-1.21-1.62-0.71-2.511l0,0c0.49-0.89,1.61-1.199,2.5-0.71l0,0c0.89,0.5,1.21,1.62,0.71,2.511l0,0
			c-0.34,0.6-0.96,0.939-1.61,0.939l0,0C253.846,484.948,253.536,484.877,253.256,484.718z M245.036,480.118
			c-0.89-0.49-1.21-1.609-0.71-2.5l0,0c0.5-0.89,1.62-1.21,2.51-0.71l0,0c0.89,0.5,1.2,1.62,0.71,2.51l0,0
			c-0.34,0.601-0.97,0.94-1.61,0.94l0,0C245.626,480.358,245.315,480.288,245.036,480.118z M236.815,475.528
			c-0.89-0.49-1.2-1.61-0.71-2.5l0,0c0.5-0.89,1.62-1.21,2.51-0.71l0,0c0.89,0.49,1.2,1.62,0.71,2.5l0,0
			c-0.34,0.61-0.97,0.95-1.61,0.95l0,0C237.416,475.768,237.106,475.688,236.815,475.528z M228.596,470.938
			c-0.88-0.49-1.2-1.62-0.71-2.51l0,0c0.5-0.88,1.63-1.2,2.51-0.7l0,0c0.89,0.49,1.21,1.61,0.71,2.5l0,0
			c-0.33,0.61-0.96,0.95-1.61,0.95l0,0C229.196,471.178,228.886,471.098,228.596,470.938z M220.386,466.348
			c-0.89-0.5-1.21-1.62-0.71-2.51l0,0c0.49-0.891,1.62-1.211,2.51-0.711l0,0c0.88,0.5,1.2,1.62,0.71,2.511l0,0
			c-0.34,0.6-0.97,0.939-1.61,0.939l0,0C220.976,466.578,220.666,466.508,220.386,466.348z M212.166,461.758
			c-0.89-0.5-1.2-1.62-0.71-2.511l0,0c0.5-0.89,1.62-1.21,2.51-0.71l0,0c0.89,0.5,1.21,1.62,0.71,2.511l0,0
			c-0.34,0.6-0.97,0.939-1.61,0.939l0,0C212.756,461.988,212.456,461.908,212.166,461.758z M203.956,457.158
			c-0.89-0.49-1.21-1.62-0.71-2.5l0,0c0.49-0.89,1.61-1.21,2.5-0.71l0,0c0.89,0.49,1.21,1.61,0.71,2.5l0,0
			c-0.34,0.61-0.96,0.95-1.61,0.95l0,0C204.546,457.398,204.236,457.318,203.956,457.158z M195.736,452.568
			c-0.89-0.49-1.21-1.62-0.71-2.51l0,0c0.5-0.891,1.62-1.2,2.51-0.71l0,0c0.88,0.5,1.2,1.62,0.7,2.51l0,0
			c-0.33,0.6-0.96,0.94-1.6,0.94l0,0C196.326,452.798,196.016,452.728,195.736,452.568z"/>
	</g>
	<g>
		<path fill="#FFFFFF" d="M336.315,530.877c-0.48,0-0.96-0.189-1.3-0.539c-0.35-0.341-0.54-0.82-0.54-1.301
			c0-0.489,0.19-0.96,0.54-1.3c0.69-0.689,1.92-0.689,2.6,0c0.35,0.34,0.54,0.811,0.54,1.3c0,0.49-0.19,0.96-0.54,1.301
			C337.276,530.688,336.806,530.877,336.315,530.877z"/>
	</g>
</g>
<g>
	<g>
		<g>
			<path fill="#FEDA8A" d="M778.215,751.53c-7.131,4.117-13.754,10.451-19.244,17.915l37.196-22.434
				C790.943,746.322,784.796,747.731,778.215,751.53z"/>
		</g>
		<g>
			<path fill="#FEDA8A" d="M748.65,788.071l58.316-35.172c-1.306-1.549-2.808-2.823-4.489-3.79l-49.582,29.905
				C751.29,781.96,749.868,784.996,748.65,788.071z"/>
		</g>
		<g>
			<path fill="#FEDA8A" d="M746.148,795.483c-0.699,2.504-1.251,5.007-1.635,7.483l67.071-40.453
				c-0.47-1.958-1.103-3.748-1.884-5.361L746.148,795.483z"/>
		</g>
		<g>
			<path fill="#FEDA8A" d="M743.863,811.029c0,1.662,0.099,3.24,0.271,4.75l68.316-41.203c0.071-1.08,0.117-2.153,0.117-3.213
				c0-1.13-0.051-2.216-0.131-3.276l-68.538,41.337C743.88,809.961,743.863,810.498,743.863,811.029z"/>
		</g>
		<g>
			<path fill="#FEDA8A" d="M745.158,821.064c0.545,1.918,1.246,3.67,2.105,5.228l62.536-37.717c0.777-2.543,1.397-5.09,1.855-7.616
				L745.158,821.064z"/>
		</g>
		<g>
			<path fill="#FEDA8A" d="M750.268,830.383c1.438,1.49,3.082,2.681,4.91,3.536l47.184-28.458c1.753-3.013,3.316-6.136,4.665-9.311
				L750.268,830.383z"/>
		</g>
		<g>
			<path fill="#FEDA8A" d="M762.286,835.535c4.762,0.135,10.178-1.352,15.929-4.672c6.296-3.635,12.192-9.004,17.266-15.349
				L762.286,835.535z"/>
		</g>
	</g>
	<g>
		<path fill="#FEF0D0" d="M762.495,838.15c-3.608,0-6.954-0.849-9.913-2.558c-7.13-4.116-11.056-12.668-11.056-24.079
			c0-22.883,16.122-50.808,35.939-62.249c9.884-5.705,19.253-6.58,26.383-2.465c7.13,4.117,11.056,12.669,11.056,24.08
			c0,22.883-16.122,50.808-35.939,62.248C773.184,836.465,767.579,838.15,762.495,838.15z M793.925,747.246
			c-4.554,0-9.648,1.55-14.96,4.616c-18.99,10.964-34.439,37.724-34.439,59.651c0,10.295,3.394,17.924,9.556,21.481
			c6.163,3.559,14.467,2.683,23.383-2.465c18.99-10.963,34.439-37.723,34.439-59.65c0-10.295-3.394-17.924-9.556-21.481
			C799.857,747.959,797.014,747.246,793.925,747.246z"/>
	</g>
</g>
<g>
	<g>
		<g>
			<polygon fill="#FDC343" points="405.459,384.06 405.459,370.294 417.381,363.411 417.381,377.177 			"/>
		</g>
	</g>
	<g>
		<polygon fill="#FEDA8A" points="405.43,384.417 405.43,370.651 393.508,363.768 393.508,377.534 		"/>
	</g>
	<g>
		<g>
			<polygon fill="#FDC343" points="393.765,364.017 405.459,370.294 417.381,363.411 405.687,357.134 			"/>
		</g>
	</g>
</g>
<g>
	<g>
		<g>
			<polygon fill="#FFFFFF" points="553.019,439.517 553.006,420.225 569.872,410.327 569.872,429.787 			"/>
		</g>
	</g>
	<g>
		<polygon fill="#FDC343" points="553.019,439.517 553.006,420.225 536.126,410.832 536.126,430.292 		"/>
	</g>
	<g>
		<g>
			<polygon fill="#FDD272" points="536.163,410.919 553.006,420.225 569.872,410.327 553.016,401.188 			"/>
		</g>
	</g>
</g>
<g>
	<g>
		<path fill="#FFFFFF" d="M485.233,480.881c0-2.06,1.657-3.717,3.706-3.717l0,0c2.06,0,3.727,1.657,3.727,3.717l0,0
			c0,2.05-1.667,3.717-3.727,3.717l0,0C486.89,484.598,485.233,482.931,485.233,480.881z M485.233,461.767
			c0-2.06,1.657-3.717,3.706-3.717l0,0c2.06,0,3.727,1.657,3.727,3.717l0,0c0,2.05-1.667,3.717-3.727,3.717l0,0
			C486.89,465.483,485.233,463.817,485.233,461.767z M485.233,442.652c0-2.06,1.657-3.717,3.706-3.717l0,0
			c2.06,0,3.727,1.657,3.727,3.717l0,0c0,2.05-1.667,3.717-3.727,3.717l0,0C486.89,446.369,485.233,444.702,485.233,442.652z"/>
	</g>
</g>
<g>
	<path fill="#FFFFFF" d="M485.446,331.748c0-1.939,1.57-3.5,3.5-3.5l0,0c1.93,0,3.5,1.561,3.5,3.5l0,0c0,1.931-1.57,3.5-3.5,3.5l0,0
		C487.016,335.248,485.446,333.678,485.446,331.748z M485.446,313.748c0-1.939,1.57-3.5,3.5-3.5l0,0c1.93,0,3.5,1.561,3.5,3.5l0,0
		c0,1.931-1.57,3.5-3.5,3.5l0,0C487.016,317.248,485.446,315.678,485.446,313.748z M485.446,295.748c0-1.939,1.57-3.5,3.5-3.5l0,0
		c1.93,0,3.5,1.561,3.5,3.5l0,0c0,1.931-1.57,3.5-3.5,3.5l0,0C487.016,299.248,485.446,297.678,485.446,295.748z"/>
</g>
<g>
	<path fill="#FFFFFF" d="M485.446,625.308c0-1.94,1.57-3.5,3.5-3.5l0,0c1.93,0,3.5,1.56,3.5,3.5l0,0c0,1.93-1.57,3.5-3.5,3.5l0,0
		C487.016,628.808,485.446,627.238,485.446,625.308z M485.446,607.308c0-1.94,1.57-3.5,3.5-3.5l0,0c1.93,0,3.5,1.56,3.5,3.5l0,0
		c0,1.93-1.57,3.5-3.5,3.5l0,0C487.016,610.808,485.446,609.238,485.446,607.308z M485.446,589.308c0-1.94,1.57-3.5,3.5-3.5l0,0
		c1.93,0,3.5,1.56,3.5,3.5l0,0c0,1.93-1.57,3.5-3.5,3.5l0,0C487.016,592.808,485.446,591.238,485.446,589.308z"/>
</g>
<g>
	<g>
		<circle fill="#1977F3" cx="488.595" cy="232.534" r="34.794"/>
	</g>
	<g>
		<g>
			<path fill="#5E9FF6" d="M521.804,242.94c1.029-3.286,1.585-6.781,1.585-10.406c0-0.839-0.04-1.669-0.099-2.493l-53.6,31.696
				c3.606,2.339,7.667,4.033,12.028,4.908L521.804,242.94z"/>
		</g>
		<g>
			<path fill="#5E9FF6" d="M521.194,220.36c-1.225-3.279-2.933-6.32-5.033-9.044l-59.448,35.155c1.401,3.2,3.269,6.146,5.519,8.757
				L521.194,220.36z"/>
		</g>
		<g>
			<path fill="#5E9FF6" d="M498.088,199.062l-43.395,25.662c-0.576,2.512-0.891,5.124-0.891,7.81c0,1.545,0.111,3.064,0.306,4.556
				l55.1-32.583C505.9,202.07,502.144,200.21,498.088,199.062z"/>
		</g>
	</g>
	<g>
		<path fill="#134FA9" d="M488.595,254.851c-14.454,0-27.045-5.74-33.816-14.252c3.643,15.32,17.381,26.728,33.816,26.728
			c16.435,0,30.174-11.409,33.817-26.729C515.64,249.112,503.049,254.851,488.595,254.851z"/>
	</g>
</g>
<g>
	<g>
		<polygon fill="#FFFFFF" points="752.407,287.523 729.051,301.008 729.051,289.828 752.407,276.344 		"/>
	</g>
	<g>
		<polygon fill="#FFFFFF" points="747.849,324.47 729.051,335.323 729.051,324.143 747.849,313.29 		"/>
	</g>
	<g>
		<polygon fill="#FFFFFF" points="787.947,301.319 751.29,322.484 751.29,311.304 787.947,290.139 		"/>
	</g>
	<g>
		<polygon fill="#FFFFFF" points="760.086,283.09 756.361,285.241 756.361,274.061 760.086,271.91 		"/>
	</g>
	<g>
		<polygon fill="#FFFFFF" points="767.289,278.931 763.564,281.082 763.564,269.902 767.289,267.751 		"/>
	</g>
	<g>
		<polygon fill="#FFFFFF" points="733.147,315.801 729.421,317.952 729.421,306.772 733.147,304.621 		"/>
	</g>
	<g>
		<polygon fill="#FFFFFF" points="740.35,311.642 736.625,313.793 736.625,302.613 740.35,300.462 		"/>
	</g>
	<g>
		<polygon fill="#FFFFFF" points="747.849,307.313 744.124,309.463 744.124,298.284 747.849,296.133 		"/>
	</g>
	<g>
		<polygon fill="#FFFFFF" points="755.052,303.154 751.327,305.305 751.327,294.125 755.052,291.974 		"/>
	</g>
	<g>
		<polygon fill="#FFFFFF" points="762.551,298.824 758.826,300.975 758.826,289.795 762.551,287.644 		"/>
	</g>
	<g>
		<polygon fill="#FFFFFF" points="781.895,287.656 766.029,296.816 766.029,285.636 781.895,276.476 		"/>
	</g>
	<g>
		<polygon fill="#FFFFFF" points="785.662,268.323 770.767,276.923 770.767,265.743 785.662,257.143 		"/>
	</g>
</g>
<g>
	<g>
		<polygon fill="#FEDA8A" points="565.159,346.156 552.022,353.741 552.022,338.572 565.159,330.987 		"/>
	</g>
	<g>
		<polygon fill="#FDD272" points="552.023,323.402 538.886,330.986 552.022,338.572 565.159,330.987 		"/>
	</g>
	<g>
		<polygon fill="#FDC343" points="538.885,346.156 552.022,353.741 552.022,338.572 538.885,330.987 		"/>
	</g>
</g>
<g>
	<path fill="#FFFFFF" d="M485.446,792.718c0-1.94,1.57-3.5,3.5-3.5l0,0c1.93,0,3.5,1.56,3.5,3.5l0,0c0,1.93-1.57,3.5-3.5,3.5l0,0
		C487.016,796.218,485.446,794.648,485.446,792.718z M485.446,774.718c0-1.94,1.57-3.5,3.5-3.5l0,0c1.93,0,3.5,1.56,3.5,3.5l0,0
		c0,1.93-1.57,3.5-3.5,3.5l0,0C487.016,778.218,485.446,776.648,485.446,774.718z M485.446,756.718c0-1.94,1.57-3.511,3.5-3.511l0,0
		c1.93,0,3.5,1.57,3.5,3.511l0,0c0,1.93-1.57,3.5-3.5,3.5l0,0C487.016,760.218,485.446,758.648,485.446,756.718z M485.446,738.708
		c0-1.93,1.57-3.489,3.5-3.489l0,0c1.93,0,3.5,1.56,3.5,3.489l0,0c0,1.94-1.57,3.511-3.5,3.511l0,0
		C487.016,742.218,485.446,740.648,485.446,738.708z"/>
</g>
<g>
	<g>
		<path fill="none" stroke="#1977F3" stroke-miterlimit="10" d="M-30.946,1257.251"/>
	</g>
</g>
<g>
</g>
<g>
</g>
<g>
</g>
<g>
</g>
<g>
</g>
<g>
</g>
<g>
</g>
<g>
</g>
<g>
</g>
<g>
</g>
<g>
</g>
<g>
</g>
<g>
</g>
<g>
</g>
<g>
</g>
</svg>
